<?xml version="1.0" encoding="utf-8"?>
<!-- Generator: Adobe Illustrator 18.1.1, SVG Export Plug-In . SVG Version: 6.00 Build 0)  -->
<!DOCTYPE svg PUBLIC "-//W3C//DTD SVG 1.1//EN" "http://www.w3.org/Graphics/SVG/1.1/DTD/svg11.dtd">
<svg version="1.1" xmlns="http://www.w3.org/2000/svg" xmlns:xlink="http://www.w3.org/1999/xlink" x="0px" y="0px"
	 viewBox="0 0 1920 1080" enable-background="new 0 0 1920 1080" xml:space="preserve">
<g id="Background">
	<rect fill="#BBE9E1" width="1920" height="1080"/>
</g>
<g id="Shadow">
	<polygon fill="#89C0AE" points="1920,1080 1143.8,1080 852,795 1425,0 1920,0 	"/>
</g>
<g id="Stroke">
	<path fill="#666666" d="M883.2,780.9c16-12.1,28.8-30.9,22.8-56.6c-4.5-19.4-19-28.3-35.2-22.3 M870.8,702.1
		c-13.8,8.6-26.7,18.5-39.4,28.6c-20.7,16.4-40.3,34.3-61,50.7c-16.4,12.3-33.7,23.4-52.4,31.9c-10,3.9-20.2,6.9-30.7,8.8
		c-7.6,0.7-15.3,0.8-23,0.1c-7.7-1.4-15.2-3.5-22.5-6.3c-3.7-1.8-7.4-3.7-10.9-5.7c3.1-8.8,5.9-17.7,8.4-26.7
		c9.8-35.9,14.9-74.5,13-111.8c-0.6-11.7-1.9-23.9-5.2-35.2c-4-13.6-10.4-25.1-19.3-36c-6.6-8.1-15.5-15.3-25-19.6
		c-15.2-6.9-29.6-9-46.1-6.3c-22.6,3.8-43.6,22.4-53,42.8c-10.5,22.7-12.3,47.1-10.5,71.8c3.1,41.9,13.5,84.2,36.4,119.9
		c4.4,6.9,9.2,13.5,14.4,19.8c-7.5,13.8-16,27-25.4,39.6c-12.4,15.6-26.3,30.3-41.7,42.9c-5.4,3.9-11.1,7.5-17.2,10.4
		c-3.2,1.1-6.5,2.1-9.8,2.8c-2.8,0.1-5.5,0.1-8.3,0c-3.8-0.8-7.5-1.8-11.1-3.1c-5.7-2.8-11.2-6.1-16.4-9.8
		c-8.5-7.1-16.2-15.1-23.2-23.8c-0.4-0.6-0.9-1.2-1.3-1.8c22.7-65,35.7-134,39.9-202.6c1.2-19.3,1.2-38.7-1.2-57.9
		c-1.5-12.3-3.3-24.4-6.5-36.4c-3.1-11.5-7.6-22.6-12.5-33.5c-9.8-21.3-26.1-40.3-48-49.6c-25.7-10.9-58.1-7.6-77.5,14.1
		c-15.4,17.3-21.5,40.3-26.1,62.5c-4.5,21.9-7.3,44.5-8,66.9c-1.4,42.1,4.3,84.8,14.3,125.7c9.8,39.7,23.8,79.3,43.4,115.3
		c0.8,1.4,1.5,2.8,2.3,4.2c-0.8,2.1-1.7,4.2-2.6,6.2c-17.4,40.2-39.1,78.4-65.5,113.4c-8.4,10.6-13.7,17.2-22.9,27.1
		c-6.4,6.9-20.9,26.2-35.6,38.6h97.4c31.5-37,57.4-77.5,78.6-120.8c9.1,8.3,18.9,15.6,29.6,21.6c18.5,10.4,40.8,17.3,62.2,15.7
		c23.1-1.8,44.8-10,63.4-23.8c31.9-23.7,58.5-53.9,79.9-87.3c2.1-3.3,4.2-6.7,6.3-10.1c7.4,4,15.1,7.5,23,10.4
		c37.5,14.1,80.5,10.8,117.2-4.3c19.6-8.1,37.9-17.8,55.2-29.9c17.1-12,33.3-25.3,49.3-38.8c12.6-10.7,25.1-21.4,38-31.7
		 M324.5,710.8c-3.7-30.6-4.2-61.5-0.5-92.1c2.3-15.4,5.3-31.1,10.5-45.8c0.1,0.1,0.2,0.1,0.3,0.2c1.4,1.3,2.7,2.6,3.9,4
		c3.1,4.6,5.8,9.5,8.1,14.6c4.6,11.9,7.7,24.2,9.7,36.8c3.6,32.9,0.8,66.3-3.4,99c-2.8,20.4-6.5,40.7-10.9,60.8
		C334.2,762.9,328.3,737,324.5,710.8z M578.2,724.1c-0.8,5.2-1.7,10.3-2.7,15.4c-4.3-12.8-7.3-25.9-9.4-39.3
		c-1.6-13.2-2.4-26.8-1.3-40.1c0.6-3.1,1.4-6.2,2.4-9.3c0.7-1.3,1.4-2.5,2.1-3.7c0.5-0.6,1.1-1.1,1.7-1.7c0.2,0.1,0.5,0.3,0.7,0.5
		c0.8,0.7,1.5,1.5,2.3,2.3c0.9,1.4,1.7,2.9,2.5,4.4c1.4,4.1,2.4,8.3,3.2,12.6C581.6,684.6,580.5,704.6,578.2,724.1z"/>
</g>
<g id="Wood">
	<polygon fill="#D1B08A" points="1210,517.1 959.8,724.3 841.4,669.7 839.3,369.3 	"/>
</g>
<g id="Lead">
	<path fill="#4D4D4D" d="M959.8,724.3l-33,30.7c-77.3,74.2-98.6,69.8-87.3-63l1.9-22.4L959.8,724.3z"/>
</g>
<g id="Pencil">
	<g>
		<polygon fill="#FFFFFF" points="1210,517.1 1425,0 1002.2,-0.2 839.3,369.3 		"/>
		<polygon fill="#FEEE87" points="1145.9,530.5 1210,519.7 1433.9,0 1306.3,0 1098.8,472.8 		"/>
		<polygon fill="#FEEE87" points="873.1,424.5 941.9,410.2 1110.2,-0.2 994.3,0 839.3,369.3 		"/>
		<polygon fill="#FEEE87" points="1006.3,474.4 1083.3,466.6 1291.7,-0.2 1124.1,0 956.6,416.1 		"/>
	</g>
</g>
<g id="Layer_7">
	<rect opacity="0.7" fill="#666666" width="1920" height="1080"/>
</g>
</svg>
