<?xml version="1.0" encoding="utf-8"?>
<!-- Generator: Adobe Illustrator 18.1.1, SVG Export Plug-In . SVG Version: 6.00 Build 0)  -->
<!DOCTYPE svg PUBLIC "-//W3C//DTD SVG 1.1//EN" "http://www.w3.org/Graphics/SVG/1.1/DTD/svg11.dtd">
<svg version="1.1" id="Layer_1" xmlns="http://www.w3.org/2000/svg" xmlns:xlink="http://www.w3.org/1999/xlink" x="0px" y="0px"
	 viewBox="0 0 1920 1080" enable-background="new 0 0 1920 1080" xml:space="preserve">
<path fill="#D2608B" d="M591.2,500.4H165.5c-20.3,0-36.8-16.6-36.8-36.8V37.9c0-20.3,16.6-36.8,36.8-36.8h425.6
	C611.4,1,628,17.6,628,37.9v425.6C628,483.8,611.4,500.4,591.2,500.4z"/>
<path fill="#9E4868" d="M627.3,452.8c0,26.4-21.4,47.8-47.8,47.8H463L331.6,373.6l-9.3-62.6l109.8-203.3L579.6,0.9
	c26.4,0,47.8,21.4,47.8,47.8V452.8z"/>
<g>
	<path fill="#FCD1BB" d="M366.6,101C366.6,101,366.6,101,366.6,101l0.4-0.6c-7.9,7.5-14.7,14.4-21,23.8
		c-40.9,61.3-29,109-38.9,171.3c0,0,59.9-63.3,73.8-74.3c7.5-5.9,14.4-11.5,20.9-16.8c-18.3-38.6-44.1-52.1-43.9-95L366.6,101z"/>
	<path fill="#FCD1BB" d="M581.6,1H447.5c-9.3,15-17.4,27.7-23.5,36.2c-9.7,13.5-18.4,24.1-26.3,32.8c-3.6,4-7.1,7.7-10.4,11
		c0-0.3,0-0.6,0-0.9L358,109.2c-0.3,42.9,25.6,56.6,43.9,95.2l31.6-26.1c0,0,0,0,0,0c23.7-19.5,37.2-31,47.4-29.8
		c-4.5-5.7-6.1-10.7-7.6-15.9l0,0c0,0,0,0,0-0.1c0,0,0,0,0,0l6.5-28.9c4-5.6,9.4-11.3,16.3-17.5c18.9-16.9,58.7-51.8,95.5-84
		C588.4,1.5,585.1,1,581.6,1z M469.1,124.7c0-0.1-0.1-0.1-0.1-0.2C469,124.6,469,124.7,469.1,124.7z M471.4,127.7
		c0,0-0.1-0.1-0.1-0.1C471.3,127.6,471.4,127.7,471.4,127.7z M470.9,127c0,0-0.1-0.1-0.1-0.1C470.8,126.9,470.9,126.9,470.9,127z
		 M470.3,126.2c0,0-0.1-0.1-0.1-0.1C470.3,126.1,470.3,126.1,470.3,126.2z M469.7,125.5c0-0.1-0.1-0.1-0.1-0.2
		C469.6,125.4,469.7,125.4,469.7,125.5z M468.4,124c-0.1-0.1-0.1-0.1-0.2-0.2C468.3,123.9,468.3,124,468.4,124z M467.6,123.3
		c-0.1-0.1-0.1-0.1-0.2-0.2C467.5,123.2,467.6,123.3,467.6,123.3z M466.8,122.6c-0.1,0-0.1-0.1-0.2-0.1
		C466.7,122.5,466.8,122.6,466.8,122.6z M466,122c-0.1,0-0.1-0.1-0.2-0.1C465.8,121.9,465.9,121.9,466,122z M465.1,121.3
		c-0.1,0-0.1-0.1-0.2-0.1C465,121.2,465,121.3,465.1,121.3z M464.2,120.7c-0.1,0-0.1-0.1-0.2-0.1C464,120.6,464.1,120.7,464.2,120.7
		z M463.2,120.1c-0.1,0-0.1-0.1-0.2-0.1C463,120,463.1,120,463.2,120.1z M462.2,119.5c-0.1,0-0.1-0.1-0.2-0.1
		C462,119.4,462.1,119.4,462.2,119.5z M461.1,118.9c-0.1,0-0.1-0.1-0.2-0.1C461,118.8,461.1,118.8,461.1,118.9z M460,118.3
		c-0.1,0-0.1-0.1-0.2-0.1C459.9,118.2,460,118.3,460,118.3z M458.9,117.7c-0.1,0-0.1-0.1-0.2-0.1
		C458.8,117.7,458.9,117.7,458.9,117.7z M457.8,117.2c-0.1,0-0.1,0-0.2-0.1C457.7,117.1,457.7,117.2,457.8,117.2z M456.6,116.7
		c0,0-0.1,0-0.1-0.1C456.5,116.6,456.5,116.6,456.6,116.7z M455.4,116.1C455.3,116.1,455.3,116.1,455.4,116.1
		C455.3,116.1,455.3,116.1,455.4,116.1z M454.1,115.6C454.1,115.6,454.1,115.6,454.1,115.6C454.1,115.6,454.1,115.6,454.1,115.6z
		 M437.4,110.6C437.3,110.5,437.3,110.5,437.4,110.6C437.3,110.5,437.3,110.5,437.4,110.6z M435.9,110.2c-0.1,0-0.1,0-0.2,0
		C435.8,110.2,435.9,110.2,435.9,110.2z M434.4,109.9c-0.1,0-0.2,0-0.2-0.1C434.3,109.8,434.4,109.9,434.4,109.9z M432.9,109.6
		c-0.1,0-0.2,0-0.3-0.1C432.7,109.5,432.8,109.5,432.9,109.6z M431.4,109.2c-0.1,0-0.2,0-0.4-0.1
		C431.2,109.2,431.3,109.2,431.4,109.2z M429.8,108.9c-0.1,0-0.3-0.1-0.4-0.1C429.6,108.9,429.7,108.9,429.8,108.9z M428.3,108.6
		c-0.1,0-0.3-0.1-0.4-0.1C428,108.6,428.1,108.6,428.3,108.6z M426.7,108.3c-0.2,0-0.3-0.1-0.5-0.1
		C426.4,108.3,426.5,108.3,426.7,108.3z M425.1,108c-0.2,0-0.3-0.1-0.5-0.1C424.8,108,424.9,108,425.1,108z M423.5,107.8
		c-0.2,0-0.3-0.1-0.5-0.1C423.1,107.7,423.3,107.7,423.5,107.8z M397.9,104.2c-0.2,0-0.4,0-0.7-0.1
		C397.4,104.2,397.7,104.2,397.9,104.2z M421.9,107.5c-0.2,0-0.4-0.1-0.5-0.1C421.5,107.4,421.7,107.4,421.9,107.5z M420.3,107.2
		c-0.2,0-0.4-0.1-0.6-0.1C419.9,107.2,420.1,107.2,420.3,107.2z M418.6,107c-0.2,0-0.4-0.1-0.6-0.1
		C418.3,106.9,418.5,106.9,418.6,107z M417,106.7c-0.2,0-0.4-0.1-0.6-0.1C416.6,106.6,416.8,106.7,417,106.7z M415.4,106.5
		c-0.2,0-0.4-0.1-0.6-0.1C415,106.4,415.2,106.4,415.4,106.5z M413.8,106.2c-0.2,0-0.4-0.1-0.6-0.1
		C413.4,106.2,413.6,106.2,413.8,106.2z M412.2,106c-0.2,0-0.4-0.1-0.6-0.1C411.7,105.9,412,106,412.2,106z M410.6,105.8
		c-0.2,0-0.4-0.1-0.6-0.1C410.1,105.7,410.3,105.7,410.6,105.8z M408.9,105.6c-0.2,0-0.4-0.1-0.6-0.1
		C408.5,105.5,408.7,105.5,408.9,105.6z M407.3,105.3c-0.2,0-0.4-0.1-0.6-0.1C406.9,105.3,407.1,105.3,407.3,105.3z M405.7,105.1
		c-0.2,0-0.4-0.1-0.6-0.1C405.3,105.1,405.5,105.1,405.7,105.1z M404.1,104.9c-0.2,0-0.4-0.1-0.6-0.1
		C403.7,104.9,403.9,104.9,404.1,104.9z M402.5,104.7c-0.2,0-0.4-0.1-0.6-0.1C402.1,104.7,402.3,104.7,402.5,104.7z M401,104.6
		c-0.2,0-0.4-0.1-0.7-0.1C400.5,104.5,400.8,104.5,401,104.6z M399.4,104.4c-0.2,0-0.4,0-0.6-0.1C399,104.3,399.2,104.4,399.4,104.4
		z M387.3,81.8c0-0.1,0-0.2,0-0.3C387.3,81.6,387.3,81.7,387.3,81.8z M396.3,104c-0.2,0-0.5-0.1-0.7-0.1
		C395.9,104,396.1,104,396.3,104z M394.8,103.9c-0.2,0-0.4,0-0.6-0.1C394.4,103.8,394.6,103.8,394.8,103.9z M387.4,83.3
		c0-0.1,0-0.1,0-0.2C387.3,83.2,387.4,83.2,387.4,83.3z M393.1,106.8C393.1,106.8,393.2,106.8,393.1,106.8
		C393.2,106.8,393.1,106.8,393.1,106.8z M392.5,105.2C392.5,105.2,392.5,105.2,392.5,105.2C392.5,105.2,392.5,105.2,392.5,105.2z
		 M471.8,128.4c0,0,0,0.1,0.1,0.1C471.8,128.5,471.8,128.4,471.8,128.4z M472.2,129.2C472.2,129.2,472.2,129.3,472.2,129.2
		C472.2,129.3,472.2,129.2,472.2,129.2z M472.6,130C472.6,130,472.6,130.1,472.6,130C472.6,130.1,472.6,130,472.6,130z"/>
</g>
<path fill="#FEF1F2" d="M400.5,204c-6.5,5.3-13.5,10.9-20.9,16.8c-13.9,10.9-63.6,62.8-72,72c-5.8,31.3-22.8,83.6-10.1,95.2
	c19.7,8.1,26.5,13.1,38.4,6.6c9.6-7.6,39.4-78.9,45.7-104.1c13.7-34.7,4.6-49.9,68-55.1c18.1-1.5,51.8-24.8,50.7-41.8
	c-1.8-28.4-19.3-45.1-19.3-45.1c-10.2-1.2-25.1,9.8-48.8,29.3"/>
<path fill="#CFB8B9" d="M470.6,225.4c0,0-35.8,6.4-51.9,10.9c-17.8,5.1-17.8,7.3-22.3,11.2c-8.1,6.5-32.5,57-48.2,95.9
	c-8,19.8-5.1,36.7,0.8,30.5c1.6-1.7,9.5-20.6,10-21.6c12.3-27.5,12.9-32.2,19.4-50.9c1.6-4.7,3.5-9.9,5.4-15.9c0.9-3,2-6,2.9-9.4
	c2.8-10.4,6.7-20.4,11.4-25.3c1-1,7.1-8.4,26.6-12c4.9-0.9,24.7-3.2,24.7-3.2c6.3-0.7,8.7-2.1,12-3.1c2.9-1.2,5.9-2.6,8.9-4.3
	C471.5,227,471.7,226.1,470.6,225.4z"/>
<path fill="#FEF1F2" d="M432.1,177.9c-13.6-30.9-45.1-64.3-44.9-97.8l-30.7,30.7c-0.3,42.9,25.6,54.6,43.9,93.3"/>
<path id="Ribbon_ankle" fill="#FEF1F2" d="M397.7,70L397.7,70c-3.6,4-8.5,8.1-11.8,11.4c0.1,7.5,1.8,14.1,4.6,21.6
	c17.6,1.9,39.6,4.6,56.3,10c8.7,2.8,15.6,6.6,20.4,10.7c3.7,3.2,4.7,4.7,6.1,8.9l6.5-28.9C472.6,61.9,433.9,76.3,397.7,70z"/>
<path fill="#BBE9E1" d="M1152.2,499.3H727.3c-19.9,0-36.1-16.3-36.1-36.1V38.2c0-19.9,16.3-36.1,36.1-36.1h424.9
	c19.9,0,36.1,16.3,36.1,36.1v424.9C1188.3,483,1172,499.3,1152.2,499.3z"/>
<path fill="#89C0AE" d="M1189.1,451.7c0,26.3-21.3,47.5-47.5,47.5h-116.8L894.1,373L1141.6,2.1c26.2,0,47.5,21.3,47.5,47.5V451.7z"
	/>
<path fill="#666666" d="M697.1,325.4c1.9-9,4.4-26.5,13-32.4c6.6-4.6,34.4,59.9,38,66.4c35.5,64.5,128.2,35.9,172.5-5.6
	c19.4-18.2-9.9-45.6-29.3-27.4c-22.3,20.9-57.1,37.6-88.1,29.2c-15-4.1-21.2-20-26.9-32.2c-7-15.2-13-30.7-22.5-44.7
	c-14.2-20.8-40.9-31.6-62.9-20.2v103c0.1-0.5,0.3-1.1,0.4-1.7C693.3,348.3,694.8,336.8,697.1,325.4z"/>
<polygon fill="#D1B08A" points="1055.6,240.4 939.6,336.5 884.8,311.1 883.8,171.9 "/>
<path fill="#4D4D4D" d="M939.6,336.5l-15.3,14.2c-35.8,34.4-45.7,32.3-40.5-29.2l0.9-10.4L939.6,336.5z"/>
<g>
	<path fill="#FFFFFF" d="M1055.6,240.4l99.6-236c-4.6-1.5-9.5-2.3-14.5-2.3H957.5l-73.7,169.8L1055.6,240.4z"/>
	<path fill="#FEEE87" d="M1025.9,246.6l29.7-5L1159.3,5.7c-4.6-1.5-9.6-2.3-14.7-2.3h-44.9l-95.7,216.5L1025.9,246.6z"/>
	<polygon fill="#FEEE87" points="899.4,197.5 931.3,190.9 1009.3,2.1 954.1,2.1 883.8,171.9 	"/>
	<polygon fill="#FEEE87" points="961.2,220.6 996.9,217 1091.8,2.1 1017.2,2.1 938.1,193.6 	"/>
</g>
<path fill="#FEE086" d="M1718.9,506.4h-426c-21.8,0-39.6-17.8-39.6-39.6v-426c0-21.8,17.8-39.6,39.6-39.6h426
	c21.8,0,39.6,17.8,39.6,39.6v426C1758.4,488.6,1740.6,506.4,1718.9,506.4z"/>
<path fill="#BFA865" d="M1758.4,458c0,26.7-21.6,48.3-48.3,48.3l-60.8,0.2l-204.5-191.3c37-7.3,74.9-14.4,103.2-48
	c93.8-111.7,162.1-266,162.1-266c26.7,0,48.3,21.6,48.3,48.3V458z"/>
<path fill="#EBA3B6" d="M1312.1,219.3c17.6,83.5,102.2,131,192.3,87c38.6-18.9,7.1-69.7-31.4-50.8c-48.7,23.8-81.1-4.5-94-45.1
	c-14.9-46.9-16.7-91.3-50.9-130.8c-19.6-22.6-45.8-34.4-74.1-37.7c-0.4,2.6-0.7,5.2-0.7,7.8v55.2
	C1300.3,119.2,1304.3,182.3,1312.1,219.3z"/>
<path fill="#B18A75" d="M1583.2,163.2c29.7,10.6,89.7-53.1,152.1-154.7c-7.3-4.5-15.9-7.1-25.2-7.1h-123.5
	C1560.6,90.5,1557.4,153.9,1583.2,163.2z"/>
<path fill="#6E3913" d="M1572.6,159.7c-68.6,4.8-75.4,56-84.3,95.1c-0.1,0.6-0.3,1.2-0.4,1.7c-0.3,1.3-0.6,2.7-1,4
	c-0.1,0.5-0.2,0.9-0.3,1.4c-0.4,1.7-0.9,3.4-1.3,5.1c-0.1,0.3-0.1,0.5-0.2,0.7c-0.4,1.4-0.8,2.7-1.2,4c-0.2,0.5-0.3,1-0.5,1.4
	c-0.4,1.1-0.8,2.2-1.2,3.2c-0.2,0.4-0.3,0.9-0.5,1.3c-0.5,1.3-1.1,2.6-1.7,3.8c0,0.1-0.1,0.2-0.2,0.4c-0.7,1.3-1.4,2.6-2.1,3.7
	c-0.2,0.3-0.4,0.6-0.7,1c-0.6,0.9-1.2,1.7-1.8,2.4c-0.3,0.3-0.6,0.7-0.8,1c-0.7,0.8-1.4,1.5-2.1,2.2c-0.2,0.2-0.5,0.5-0.7,0.7
	c-1,0.9-2.1,1.7-3.2,2.4c-0.2,0.2-0.5,0.3-0.7,0.4c-0.9,0.5-1.9,1-2.9,1.4c-0.4,0.2-0.8,0.3-1.3,0.5c-0.9,0.3-1.9,0.6-2.9,0.9
	c-0.4,0.1-0.9,0.2-1.3,0.3c-1.5,0.3-3,0.5-4.6,0.6c0,0,0,0,0,0c-5.6,0.3-10.2,0.8-13.9,1.4c-0.6,0.1-1.1,0.2-1.7,0.3
	c-18.7,3.7-11.1,11.2,1,17.1c8.7,4.2,19.8,7.6,24.5,7.9c2.3,0.1,4.5,0.1,6.7,0c0.5,0,0.9,0,1.4,0c2.1-0.1,4.3-0.3,6.4-0.6
	c0.3,0,0.7-0.1,1-0.2c1.9-0.3,3.8-0.6,5.7-1.1c0.3-0.1,0.7-0.1,1-0.2c2-0.5,4.1-1.1,6.1-1.7c0.4-0.1,0.9-0.3,1.3-0.4
	c2-0.7,4.1-1.4,6-2.2c0,0,0,0,0,0c2-0.8,4-1.7,5.9-2.7c0.4-0.2,0.8-0.4,1.2-0.6c1.9-1,3.8-2,5.6-3c0.3-0.2,0.6-0.4,0.9-0.6
	c1.7-1,3.4-2,5-3.1c0.3-0.2,0.6-0.4,0.9-0.5c1.8-1.2,3.6-2.4,5.3-3.7c0.4-0.3,0.8-0.6,1.1-0.8c1.8-1.3,3.5-2.6,5.3-4c0,0,0,0,0,0
	c1.7-1.4,3.4-2.8,5.1-4.2c0.4-0.3,0.7-0.6,1.1-0.9c1.6-1.4,3.2-2.9,4.8-4.3c0.3-0.3,0.6-0.5,0.8-0.8c1.4-1.3,2.9-2.7,4.3-4
	c0.3-0.3,0.5-0.5,0.8-0.8c1.5-1.5,3-3,4.5-4.5c0.4-0.4,0.8-0.8,1.2-1.2c1.4-1.4,2.8-2.8,4.2-4.2c0.2-0.3,0.5-0.5,0.7-0.8
	c1.3-1.3,2.5-2.6,3.7-3.9c0.3-0.3,0.6-0.6,0.9-0.9c6.4-6.8,12.3-13.4,17.9-19.2c15.5-16.3,28.4-35.1,33.5-56.8
	C1618.4,179.6,1612,155.7,1572.6,159.7z"/>
<path fill="#BCBEC0" d="M1658.3,144c-3.5,8.5-11.9,13.7-18.9,11.6l-84.5-25.8c-7-2.1-9.7-10.8-6.2-19.3l0,0
	c3.5-8.6,12-13.8,18.9-11.7l84.5,25.8C1659,126.8,1661.8,135.4,1658.3,144L1658.3,144z"/>
<path fill="#939598" d="M1635.6,168.6c-3.5,8.6-10.9,14.1-16.5,12.4l-68.4-20.9c-5.6-1.7-7.3-10-3.8-18.6l0,0
	c3.5-8.6,10.9-14.1,16.5-12.4l68.4,20.9C1637.4,151.8,1639.1,160.1,1635.6,168.6L1635.6,168.6z"/>
<path id="Paint" fill="#DD6685" d="M1544.7,260.2c-7.6-13.8-13.8,2.7-27.6-17.1c-14.2-18.5-26.1-1.5-28,7.2
	c-0.1,0.5-0.2,0.9-0.3,1.3c-0.1,0.6-0.3,1.2-0.4,1.8c-0.3,1.4-0.6,2.8-1,4.2c-0.1,0.5-0.2,1-0.3,1.5c-0.4,1.8-0.9,3.6-1.4,5.4
	c-0.1,0.3-0.1,0.5-0.2,0.8c-0.4,1.4-0.8,2.9-1.3,4.2c-0.2,0.5-0.3,1-0.5,1.5c-0.4,1.2-0.8,2.3-1.2,3.4c-0.2,0.5-0.3,0.9-0.5,1.4
	c-0.6,1.4-1.1,2.7-1.8,4c0,0.1-0.1,0.2-0.2,0.4c-0.7,1.4-1.4,2.7-2.2,3.9c-0.2,0.3-0.5,0.7-0.7,1c-0.6,0.9-1.2,1.8-1.8,2.6
	c-0.3,0.4-0.6,0.7-0.8,1.1c-0.7,0.8-1.4,1.6-2.2,2.3c-0.2,0.2-0.5,0.5-0.7,0.7c-1,0.9-2.1,1.7-3.3,2.5c-0.2,0.2-0.5,0.3-0.8,0.4
	c-0.9,0.6-1.9,1.1-2.9,1.5c-0.4,0.2-0.9,0.4-1.3,0.5c-1,0.4-2,0.7-3,0.9c-0.4,0.1-0.9,0.2-1.3,0.3c-1.5,0.3-3.1,0.5-4.8,0.6
	c0,0,0,0,0,0c-5.8,0.3-10.6,0.8-14.4,1.5c-0.6,0.1-1.2,0.2-1.8,0.3c-19.3,3.8-11.4,11.8,1.1,18c9,4.5,20.4,8.1,25.3,8.4
	c2.3,0.1,4.6,0.2,6.9,0.1c0.5,0,1,0,1.4,0c2.2-0.1,4.4-0.3,6.6-0.6c0.4,0,0.7-0.1,1.1-0.2c2-0.3,4-0.7,5.9-1.1
	c0.3-0.1,0.7-0.1,1-0.2c2.1-0.5,4.2-1.1,6.3-1.8c0.4-0.1,0.9-0.3,1.3-0.4c2.1-0.7,4.2-1.5,6.2-2.3c0,0,0,0,0,0
	c2.1-0.9,4.1-1.8,6.1-2.8c0.4-0.2,0.8-0.4,1.3-0.6c1.9-1,3.9-2,5.7-3.2c0.3-0.2,0.6-0.4,1-0.6c1.7-1,3.5-2.1,5.2-3.3
	c0.3-0.2,0.6-0.4,0.9-0.6c1.9-1.2,3.7-2.5,5.5-3.9c0.4-0.3,0.8-0.6,1.2-0.9c1.8-1.4,3.6-2.8,5.4-4.2c0,0,0,0,0,0
	c1.8-1.4,3.5-2.9,5.3-4.5c0.4-0.3,0.7-0.7,1.1-1c1.7-1.5,3.3-3,5-4.5c0.3-0.3,0.6-0.5,0.9-0.8c1.5-1.4,3-2.8,4.4-4.2
	c0.3-0.3,0.5-0.5,0.8-0.8c1.6-1.6,3.1-3.1,4.6-4.7c0.4-0.4,0.8-0.8,1.2-1.2c1.4-1.5,2.9-3,4.3-4.5c0.2-0.3,0.5-0.5,0.8-0.8
	c1.3-1.4,2.6-2.8,3.8-4.1c0.3-0.3,0.6-0.6,0.9-1C1572.5,261.5,1554.4,277.6,1544.7,260.2z"/>
<path fill="#A178AC" d="M626.6,1028.1c0,26.5-21.5,48-48,48H172.4c-26.5,0-48-21.5-48-48V622c0-26.5,21.5-48,48-48h406.2
	c26.5,0,48,21.5,48,48V1028.1z"/>
<path fill="#795A81" d="M625.3,1028.1c0,26.5-21.5,48-48,48l-201.8,0l-101.1-93.9l16.8-22.6l37.9,0.7L274.4,904l67.5-12.8h45.4
	l-64.8-61.5l66.9-93.3l86.7-89.7l149.1,141.2V1028.1z"/>
<path fill="#E6E7E8" d="M374.2,758.1c28.5,7.3,52.6,33.1,59.2,67.3c8.6,44.3-15.3,86.5-53.4,95.7c1.9,11.4,4.1,22.7,6.6,34
	c56.9-12.7,93-73.1,80.8-136.2c-8.6-44.4-38.9-78.6-76.2-91.7C376.1,721.9,367.9,756.5,374.2,758.1z"/>
<path fill="#A7A9AC" d="M449.5,939.8c0,15.7-3.9,28.4-8.7,28.4h-62.8c-4.8,0-8.7-12.7-8.7-28.4l0,0c0-15.7,3.9-28.4,8.7-28.4h62.8
	C445.6,911.4,449.5,924.1,449.5,939.8L449.5,939.8z"/>
<path fill="#D1D3D4" d="M485.6,982.2c0,12.1-10.5,21.8-23.5,21.8H292.3c-13,0-23.5-9.8-23.5-21.8l0,0c0-12.1,10.5-21.8,23.5-21.8
	H462C475,960.4,485.6,970.2,485.6,982.2L485.6,982.2z"/>
<path fill="#D1D3D4" d="M469.7,904c0,7.1-9.8,12.8-21.8,12.8H290.6c-12.1,0-21.8-5.7-21.8-12.8l0,0c0-7.1,9.8-12.8,21.8-12.8h157.3
	C459.9,891.2,469.7,896.9,469.7,904L469.7,904z"/>
<path fill="#FFFFFF" d="M469.7,904.8c0,19.3-15.7,35-35,35c-19.3,0-35-15.6-35-35c0-19.3,15.6-35,35-35
	C454.1,869.9,469.7,885.5,469.7,904.8z"/>
<path fill="#D1D3D4" d="M451.3,636.3c10.5,5.9,14.3,19.2,8.4,29.7L383,803.3c-5.9,10.5-19.2,14.3-29.7,8.4l0,0
	c-10.5-5.9-14.3-19.2-8.4-29.7l76.7-137.4C427.5,634.2,440.8,630.4,451.3,636.3L451.3,636.3z"/>
<path fill="#BCBEC0" d="M357.9,803.3c8.8,4.9,14.8,10.7,13.5,13.1l-17.1,30.9c-1.3,2.4-9.5,0.4-18.3-4.5l0,0
	c-8.8-4.9-14.8-10.7-13.5-13.1l17.1-30.9C340.9,796.5,349.1,798.5,357.9,803.3L357.9,803.3z"/>
<path fill="#A7A9AC" d="M388.7,823.1c-1.6,3.1-6.3,3.9-10.4,1.7l-53.5-28.2c-4.1-2.2-6.1-6.4-4.4-9.6l0,0c1.6-3.1,6.3-3.9,10.4-1.7
	l53.5,28.2C388.3,815.7,390.3,820,388.7,823.1L388.7,823.1z"/>
<g>
	<path fill="#A7A9AC" d="M455.4,629.6c12.8,7.1,22.1,14.8,20.8,17.1l-16.9,30.2c-1.3,2.3-12.7-1.6-25.5-8.7l0,0
		c-12.8-7.1-22.1-14.8-20.8-17.1l16.9-30.2C431.2,618.6,442.6,622.5,455.4,629.6L455.4,629.6z"/>
	<path fill="#6D6E71" d="M455.4,629.6c12.8,7.1,22.1,14.8,20.8,17.1l-46.3-25.8C431.2,618.6,442.6,622.5,455.4,629.6L455.4,629.6z"
		/>
</g>
<path fill="#FFFFFF" d="M435.2,760.3c0,13.2-10.7,23.9-23.9,23.9c-13.2,0-23.9-10.7-23.9-23.9c0-13.2,10.7-23.9,23.9-23.9
	C424.5,736.4,435.2,747.1,435.2,760.3z"/>
<path fill="#9CD19E" d="M1194.3,1029.8c0,26.6-21.5,48.1-48.1,48.1h-407c-26.6,0-48.1-21.5-48.1-48.1v-407
	c0-26.6,21.5-48.1,48.1-48.1h407c26.6,0,48.1,21.5,48.1,48.1V1029.8z"/>
<path fill="#759D77" d="M1194.3,1029.8c0,26.6-21.5,48.1-48.1,48.1H951.1l-97.6-89.8L1034,664.3l159.1,147.1L1194.3,1029.8z"/>
<path fill="#58595B" d="M1042.4,948.4c2,45.6-12.9,45.6-28.7,45.6H871.9c-15.9,0-29.2-6.5-28.7-45.6V759.9v-7.7l0.4-47.3
	c0-45.9,12.5-45.9,28.3-45.9h141.8c15.9,0,29.9,0,29.3,45.9l-0.6,47.3v7.7V948.4z"/>
<rect x="843.6" y="760.8" fill="#D1D3D4" width="199.4" height="8.4"/>
<path fill="#D1D3D4" d="M1023.9,713.2c0,11.1-7.9,20.2-17.6,20.2H879.3c-9.7,0-17.6-9-17.6-20.2l0,0c0-11.1,7.9-20.1,17.6-20.1
	h126.9C1016,693.1,1023.9,702.1,1023.9,713.2L1023.9,713.2z"/>
<path fill="#A7A9AC" d="M1023.9,713.2c0,11.1-7.9,20.2-17.6,20.2h-47.7l47.7-40.3C1016,693.1,1023.9,702.1,1023.9,713.2
	L1023.9,713.2z"/>
<g>
	<path fill="#D1D3D4" d="M909.6,816.7c0,5.1-4.2,9.3-9.4,9.3h-24.6c-5.2,0-9.4-4.2-9.4-9.3v-17.8c0-5.1,4.2-9.3,9.4-9.3h24.6
		c5.2,0,9.4,4.2,9.4,9.3V816.7z"/>
	<path fill="#D1D3D4" d="M964.9,816.7c0,5.1-4.2,9.3-9.4,9.3H931c-5.2,0-9.4-4.2-9.4-9.3v-17.8c0-5.1,4.2-9.3,9.4-9.3h24.6
		c5.2,0,9.4,4.2,9.4,9.3V816.7z"/>
	<path fill="#D1D3D4" d="M1020.8,816.1c0,5.1-4.2,9.3-9.4,9.3h-24.6c-5.2,0-9.4-4.2-9.4-9.3v-17.8c0-5.1,4.2-9.3,9.4-9.3h24.6
		c5.2,0,9.4,4.2,9.4,9.3V816.1z"/>
</g>
<path fill="#D1D3D4" d="M1020.3,863.4c0,5.1-4.2,9.3-9.4,9.3h-24.6c-5.2,0-9.4-4.2-9.4-9.3v-17.8c0-5.1,4.2-9.3,9.4-9.3h24.6
	c5.2,0,9.4,4.2,9.4,9.3V863.4z"/>
<g>
	<path fill="#D1D3D4" d="M895.2,855.7c0,2.9-2.6,5.3-5.8,5.3h-15.1c-3.2,0-5.8-2.4-5.8-5.3v-10.1c0-2.9,2.6-5.3,5.8-5.3h15.1
		c3.2,0,5.8,2.4,5.8,5.3V855.7z"/>
	<path fill="#D1D3D4" d="M929.2,855.7c0,2.9-2.6,5.3-5.8,5.3h-15.1c-3.2,0-5.8-2.4-5.8-5.3v-10.1c0-2.9,2.6-5.3,5.8-5.3h15.1
		c3.2,0,5.8,2.4,5.8,5.3V855.7z"/>
	<path fill="#D1D3D4" d="M963.6,855.4c0,2.9-2.6,5.3-5.8,5.3h-15.1c-3.2,0-5.8-2.4-5.8-5.3v-10.1c0-2.9,2.6-5.3,5.8-5.3h15.1
		c3.2,0,5.8,2.4,5.8,5.3V855.4z"/>
</g>
<g>
	<path fill="#D1D3D4" d="M895.3,891.2c0,2.9-2.6,5.3-5.8,5.3h-15.1c-3.2,0-5.8-2.4-5.8-5.3v-10.1c0-2.9,2.6-5.3,5.8-5.3h15.1
		c3.2,0,5.8,2.4,5.8,5.3V891.2z"/>
	<path fill="#D1D3D4" d="M929.4,891.2c0,2.9-2.6,5.3-5.8,5.3h-15.1c-3.2,0-5.8-2.4-5.8-5.3v-10.1c0-2.9,2.6-5.3,5.8-5.3h15.1
		c3.2,0,5.8,2.4,5.8,5.3V891.2z"/>
	<path fill="#D1D3D4" d="M963.8,890.9c0,2.9-2.6,5.3-5.8,5.3h-15.1c-3.2,0-5.8-2.4-5.8-5.3v-10.1c0-2.9,2.6-5.3,5.8-5.3H958
		c3.2,0,5.8,2.4,5.8,5.3V890.9z"/>
</g>
<g>
	<path fill="#D1D3D4" d="M895.1,926.8c0,2.9-2.6,5.3-5.8,5.3h-15.1c-3.2,0-5.8-2.4-5.8-5.3v-10.1c0-2.9,2.6-5.3,5.8-5.3h15.1
		c3.2,0,5.8,2.4,5.8,5.3V926.8z"/>
	<path fill="#D1D3D4" d="M929.1,926.8c0,2.9-2.6,5.3-5.8,5.3h-15.1c-3.2,0-5.8-2.4-5.8-5.3v-10.1c0-2.9,2.6-5.3,5.8-5.3h15.1
		c3.2,0,5.8,2.4,5.8,5.3V926.8z"/>
	<path fill="#D1D3D4" d="M963.5,926.4c0,2.9-2.6,5.3-5.8,5.3h-15.1c-3.2,0-5.8-2.4-5.8-5.3v-10.1c0-2.9,2.6-5.3,5.8-5.3h15.1
		c3.2,0,5.8,2.4,5.8,5.3V926.4z"/>
</g>
<g>
	<path fill="#D1D3D4" d="M895,962.3c0,2.9-2.6,5.3-5.8,5.3h-15.1c-3.2,0-5.8-2.4-5.8-5.3v-10.1c0-2.9,2.6-5.3,5.8-5.3h15.1
		c3.2,0,5.8,2.4,5.8,5.3V962.3z"/>
	<path fill="#D1D3D4" d="M929,962.3c0,2.9-2.6,5.3-5.8,5.3h-15.1c-3.2,0-5.8-2.4-5.8-5.3v-10.1c0-2.9,2.6-5.3,5.8-5.3h15.1
		c3.2,0,5.8,2.4,5.8,5.3V962.3z"/>
	<path fill="#D1D3D4" d="M963.4,962c0,2.9-2.6,5.3-5.8,5.3h-15.1c-3.2,0-5.8-2.4-5.8-5.3v-10.1c0-2.9,2.6-5.3,5.8-5.3h15.1
		c3.2,0,5.8,2.4,5.8,5.3V962z"/>
</g>
<path fill="#89E6E9" d="M1019.7,946.8c0,12,1.9,21.7-9.4,21.7h-24.6c-9.5,0.6-9.4-9.7-9.4-21.7v-41.5c0-12-2.1-21.7,9.4-21.7h24.6
	c11.6,0.6,9.4,9.7,9.4,21.7V946.8z"/>
<path fill="#E68784" d="M1755.3,1031.1c0,26.6-21.6,48.2-48.2,48.2h-408c-26.6,0-48.2-21.6-48.2-48.2v-408
	c0-26.6,21.6-48.2,48.2-48.2h408c26.6,0,48.2,21.6,48.2,48.2V1031.1z"/>
<g>
	<path fill="#AD6563" d="M1755.3,1031.5c0,26.6-21.6,48.2-48.2,48.2h-220.3l-98.7-95.8l69.6-193.4l180-76.7l117.6,113.8V1031.5z"/>
	<polygon fill="#AD6563" points="1605.5,693.4 1613.9,681 1755.3,818.7 1755.3,836.8 	"/>
	<polygon fill="#AD6563" points="1583,666.5 1587.1,660.4 1755.3,821.7 1755.3,831.9 	"/>
</g>
<path fill="#F1F2F2" d="M1608.3,709.3H1503v1.5c0,0,0,0,0,0v-1.5h-105.2c-16.1,0-30.3-0.6-30.3,2.6c0,3.3,1,5.2,7.2,6.3
	c7.5,1.3,4.4,22.5,4.4,36.8v203.5c0,22,17.8,39.8,39.8,39.8h84v-1.2h0v1.2h84c22,0,39.8-17.8,39.8-39.8V755
	c0-14.3-3.1-35.4,4.4-36.8c6.2-1.1,7.2-3,7.2-6.3C1638.5,708.7,1624.4,709.3,1608.3,709.3z"/>
<path fill="#FFB588" d="M1563.9,756.7c-29.7,6.4-56.3,20-87.8,17.6c-9.9-0.7-19.5-2.4-29.2-4.4c-13.9-2.8-27.5-6.3-41.5-8.5
	c-1.4,0-2.2-0.1-3.6-0.2c-4.5-0.2-8.9-0.3-12.9-0.6v190.6c0,11.7,4.7,22.2,12.9,29.1c6.4,5.4,14.1,8.6,23.1,8.6h22.1h54.9v-1.7v0
	v1.6h79.1c20.4,0,35.9-16.8,35.9-37.7V758.3C1600,755.9,1581.9,755.9,1563.9,756.7z"/>
<g>
	<path fill="#BF8866" d="M1602.4,777.6c0,0.9-1.5,1.7-3.3,1.7h-23.9c-1.8,0-3.3-0.8-3.3-1.7l0,0c0-0.9,1.5-1.7,3.3-1.7h23.9
		C1600.9,775.9,1602.4,776.6,1602.4,777.6L1602.4,777.6z"/>
	<path fill="#BF8866" d="M1602.4,796.1c0,0.9-1.5,1.7-3.3,1.7h-23.9c-1.8,0-3.3-0.8-3.3-1.7l0,0c0-0.9,1.5-1.7,3.3-1.7h23.9
		C1600.9,794.4,1602.4,795.1,1602.4,796.1L1602.4,796.1z"/>
	<path fill="#BF8866" d="M1602.4,814.6c0,0.9-1.5,1.7-3.3,1.7h-23.9c-1.8,0-3.3-0.8-3.3-1.7l0,0c0-0.9,1.5-1.7,3.3-1.7h23.9
		C1600.9,812.9,1602.4,813.6,1602.4,814.6L1602.4,814.6z"/>
	<path fill="#BF8866" d="M1602.4,833.1c0,0.9-1.5,1.7-3.3,1.7h-23.9c-1.8,0-3.3-0.8-3.3-1.7l0,0c0-0.9,1.5-1.7,3.3-1.7h23.9
		C1600.9,831.4,1602.4,832.1,1602.4,833.1L1602.4,833.1z"/>
	<path fill="#BF8866" d="M1602.4,851.6c0,0.9-1.5,1.7-3.3,1.7h-23.9c-1.8,0-3.3-0.8-3.3-1.7l0,0c0-0.9,1.5-1.7,3.3-1.7h23.9
		C1600.9,849.9,1602.4,850.6,1602.4,851.6L1602.4,851.6z"/>
	<path fill="#BF8866" d="M1602.4,870.1c0,0.9-1.5,1.7-3.3,1.7h-23.9c-1.8,0-3.3-0.8-3.3-1.7l0,0c0-0.9,1.5-1.7,3.3-1.7h23.9
		C1600.9,868.4,1602.4,869.1,1602.4,870.1L1602.4,870.1z"/>
	<path fill="#BF8866" d="M1602.4,888.6c0,0.9-1.5,1.7-3.3,1.7h-23.9c-1.8,0-3.3-0.8-3.3-1.7l0,0c0-0.9,1.5-1.7,3.3-1.7h23.9
		C1600.9,886.9,1602.4,887.6,1602.4,888.6L1602.4,888.6z"/>
</g>
<path opacity="0.5" fill="#F1F2F2" d="M1400,715v46.2l0.7,219.2c6.4,5.4,15.3,8.6,24.3,8.6h22.1l-0.1-219.1V715H1400z"/>
<path fill="#FFB588" d="M1605.5,756.2c0,10.1-8.2,18.3-18.3,18.3c-10.1,0-18.3-8.2-18.3-18.3c0-10.1,8.2-18.3,18.3-18.3
	C1597.3,737.9,1605.5,746.1,1605.5,756.2z"/>
<path fill="#FFB588" d="M1580.6,714.6c0,6.5-5.2,11.7-11.7,11.7c-6.5,0-11.7-5.2-11.7-11.7c0-6.5,5.2-11.7,11.7-11.7
	C1575.3,702.9,1580.6,708.2,1580.6,714.6z"/>
<path fill="#FFB588" d="M1618.2,687.6c0,4.5-3.9,8.2-8.7,8.2c-4.8,0-8.7-3.7-8.7-8.2c0-4.5,3.9-8.2,8.7-8.2
	C1614.3,679.4,1618.2,683.1,1618.2,687.6z"/>
<path fill="#FFB588" d="M1590.6,663.1c0,3.3-2.7,6-6.1,6c-3.4,0-6.1-2.7-6.1-6c0-3.3,2.7-6,6.1-6
	C1587.9,657.1,1590.6,659.8,1590.6,663.1z"/>
</svg>
