<?xml version="1.0" encoding="utf-8"?>
<!-- Generator: Adobe Illustrator 18.1.1, SVG Export Plug-In . SVG Version: 6.00 Build 0)  -->
<!DOCTYPE svg PUBLIC "-//W3C//DTD SVG 1.1//EN" "http://www.w3.org/Graphics/SVG/1.1/DTD/svg11.dtd">
<svg version="1.1" id="Layer_1" xmlns="http://www.w3.org/2000/svg" xmlns:xlink="http://www.w3.org/1999/xlink" x="0px" y="0px"
	 viewBox="0 0 1920 1080" enable-background="new 0 0 1920 1080" xml:space="preserve">
<path fill="#FFFFFF" stroke="#F5B4B9" stroke-miterlimit="10" d="M1316.9,932.2l-201.4,10.6c-6.6,0.3-12.3-4.8-12.6-11.4l-5.8-109.9
	c-0.3-6.6,4.8-12.3,11.4-12.6l201.4-10.6c6.6-0.3,12.3,4.8,12.6,11.4l5.8,109.9C1328.6,926.2,1323.5,931.8,1316.9,932.2z"/>
<path fill="#FFFFFF" stroke="#F5B4B9" stroke-miterlimit="10" d="M1324.1,936.8l-201.3,11.7c-6.6,0.4-12.3-4.7-12.7-11.3l-6.4-109.9
	c-0.4-6.6,4.7-12.3,11.3-12.7l201.3-11.7c6.6-0.4,12.3,4.7,12.7,11.3l6.4,109.9C1335.8,930.7,1330.7,936.4,1324.1,936.8z"/>
<path fill="#FBE1E3" stroke="#FFFFFF" stroke-miterlimit="10" d="M1046.9,932.8l-201.4,9.8c-6.6,0.3-12.2-4.8-12.6-11.4l-5.4-109.9
	c-0.3-6.6,4.8-12.2,11.4-12.6l201.4-9.8c6.6-0.3,12.2,4.8,12.6,11.4l5.4,109.9C1058.6,926.9,1053.5,932.5,1046.9,932.8z"/>
<path fill="#FBE1E3" stroke="#FFFFFF" stroke-miterlimit="10" d="M1054.4,940l-201.6,5c-6.6,0.2-12.1-5.1-12.3-11.7l-2.7-110
	c-0.2-6.6,5.1-12.1,11.7-12.3l201.6-5c6.6-0.2,12.1,5.1,12.3,11.7l2.7,110C1066.3,934.3,1061,939.8,1054.4,940z"/>
<g>
	<g>
		<g>
			<path fill="#FBE1E3" stroke="#FFFFFF" stroke-miterlimit="10" d="M1809.3,956.2L1391.7,971c-6.6,0.2-12.2-5-12.4-11.6l-6.2-174.9
				c-0.2-6.6,5-12.2,11.6-12.4l417.6-14.9c6.6-0.2,12.2,5,12.4,11.6l6.2,174.9C1821.1,950.3,1815.9,955.9,1809.3,956.2z"/>
		</g>
	</g>
</g>
<g>
	<g>
		<path fill="#FBE1E3" stroke="#FFFFFF" stroke-miterlimit="10" d="M1260.1,677.6l-419.9-0.3c-6.6,0-12-5.4-12-12l0.4-574.9
			c0-6.6,5.4-12,12-12l419.9,0.3c6.6,0,12,5.4,12,12l-0.4,574.9C1272.1,672.2,1266.7,677.6,1260.1,677.6z"/>
	</g>
</g>
<g>
	<g>
		<path fill="#FBE1E3" stroke="#FFFFFF" stroke-miterlimit="10" d="M1270.7,689.8H850.8c-6.6,0-12-5.4-12-12V102.8
			c0-6.6,5.4-12,12-12h419.9c6.6,0,12,5.4,12,12v574.9C1282.7,684.4,1277.3,689.8,1270.7,689.8z"/>
	</g>
	<g>
		<path fill="#F5B4B9" d="M1126.1,149c0,36.1-29.2,65.3-65.3,65.3c-36.1,0-65.3-29.2-65.3-65.3c0-24.7,15-46.6,35.2-57.7h60.7
			C1112,102.2,1126.1,124,1126.1,149z"/>
		<g>
			<g>
				<path fill="#FFFFFF" d="M1017.9,106.9c0,2.4-1.9,4.3-4.3,4.3c-1.8,0-3.3-1.1-4-2.6c-0.2-0.5,4.8-5.9,5-5.9
					C1016.7,103.1,1017.9,104.8,1017.9,106.9z"/>
				<circle fill="#FFFFFF" cx="1022.2" cy="117.7" r="4.3"/>
			</g>
			<circle fill="#FFFFFF" cx="1030.7" cy="127.9" r="4.3"/>
			<circle fill="#FFFFFF" cx="1040.3" cy="137.7" r="4.3"/>
		</g>
		<g>
			<g>
				<path fill="#FFFFFF" d="M1105,106.9c0,2.4,1.9,4.3,4.3,4.3c1.5,0,2.7-0.7,3.5-1.8c0,0-5-6.6-5.7-6.2
					C1105.9,103.9,1105,105.3,1105,106.9z"/>
				<circle fill="#FFFFFF" cx="1100.7" cy="117.7" r="4.3"/>
			</g>
			<circle fill="#FFFFFF" cx="1092.3" cy="127.9" r="4.3"/>
			<circle fill="#FFFFFF" cx="1082.6" cy="137.7" r="4.3"/>
		</g>
		<g>
			<g>
				<path fill="#FFFFFF" d="M1040.6,171.3c0,0-1.8-0.5-2.5-1c0.1,0.1,7.6,20.2,8.3,20.9c4.7,1.9,23.8,2.1,29.1,0.2
					c0.5-0.6,6.2-16.9,7.5-20.7c-0.4,0.5-2.2,1.1-2.2,1.1C1078.1,173.1,1044.3,172.6,1040.6,171.3z"/>
				<path fill="#FFFFFF" d="M1086.2,166.6c1.6-4.5-3-9.2-6.5-10c-1.8-0.4-9.4,0.6-15.2,1.6c-8,1.4-22.8-6.1-28.8,1.8
					c-3.6,4.6-1.6,6.7,0,8.2c1.4,1.3,6,2.6,7.1,2.6c0.8,0.3,10.2,0.6,10.2,0.6c0.3,0,9.5,0.2,14.8,0.2c3.8,0,12.1,0.1,15.2-1.6
					C1083.1,170.1,1085,169.5,1086.2,166.6z"/>
				<path fill="#FFFFFF" d="M1054,156.7c1.8,0.3,5.1,1.1,8.4,1c3.1-0.1,6-0.9,8.1-1.1c3.8-0.5,4.8-0.7,7.5-0.8
					c2-2.5-3.2-10.3-7.9-9.8c-1.6,0-5.2,3-9.2,2.1c-3.9-0.8-8.3-1.6-9.7-1.2c-12,3.6-7.8,8.8-7.8,8.8c0.3,0,1.8-0.2,3.6,0.1
					C1049.3,155.9,1050.8,156,1054,156.7z"/>
				<path fill="#FFFFFF" d="M1057.3,146.5c0.5,0,4.3,0.8,4.8,0.8c1.4,0.1,3.2-0.3,5.1-1.2c0.4-0.2,0.7-0.3,0.7-0.3
					c1.3-0.4,1-3.1,0.7-3.9c-0.2-0.6-1.3-1.7-2.6-1.9c-0.2,0-0.5-0.1-0.6-0.2c-0.5-0.3-0.6-0.5-0.8-0.9c-0.3-0.7-0.5-1.2-0.8-1.8
					c-1.7-4.6-0.4-4.9-1.2-3.1c-0.5,1-0.4,2.4-6.2,5.7c-2.3,1-3,3.3-3,3.3c-0.6,1.1-0.2,2.9-0.2,3.1
					C1055.8,146.1,1057.3,146.5,1057.3,146.5z"/>
			</g>
			<path fill="#D2608B" d="M1074.3,172.7c-0.5,1.1-2,2.2-2.1,0.8c-0.2-3,1.4-10.2,0.4-12c-0.4-0.7-1.3-1.5-2.3-1.5
				c-4.6,0-6,5.2-7.2,7.8c0-1.9,0.4-5.3-0.5-6.8c-0.4-0.7-1-1.1-1.8-1.1c-4.5,0-6.3,4.7-8.2,8.4c1.1-1.1,2-6.7-0.6-8.6
				c-2.3-1.6-5.4,0.3-6.4,2.6c-0.4,0.9-0.1,0.7,0.2,1.1c0.6,0.8,1.8,1.3,2.7-0.4c0.5-0.8,1.4-1.6,2.2-0.7c0.9,0.5-0.4,7.4-2.6,13.8
				c-0.5,1.4,1.8,2,2.6,0.8c2-3.2,7.5-15.2,9.7-14.1c0.8,1,0.3,9.4-0.6,12.7c0.5,2,2.5,1.3,3,0c1.9-5,4.5-13.1,6.9-12.7
				c2.2,0.7-2.3,13.3,1.3,14.2c1.4,0.4,3.7-1,5-2.3c0.3-0.3,0.4-1-0.4-1.8C1075.2,172.6,1074.7,172.5,1074.3,172.7"/>
		</g>
	</g>
</g>
<g>
	<g>
		<path fill="#FFFFFF" stroke="#F5B4B9" stroke-width="2" stroke-miterlimit="10" d="M146.5,439.9c36.4-91,125.4-155.3,229.4-155.3
			c104.2,0,193.4,64.6,229.7,155.9"/>
		<path fill="#FFFFFF" stroke="#F5B4B9" stroke-width="2" stroke-miterlimit="10" d="M622.3,549.5c-9.2,128-116,229-246.3,229
			c-129.7,0-236-99.9-246.2-226.9"/>
	</g>
	<path fill="#F5B4B9" d="M611.2,531.8c0,130-105.3,235.3-235.3,235.3c-129.9,0-235.3-105.3-235.3-235.3
		c0-129.9,105.3-235.3,235.3-235.3C505.9,296.5,611.2,401.9,611.2,531.8z"/>
	<g>
		<path fill="#FFFFFF" d="M356,347.5c0,0-1.8-0.5-2.6-1.1c0.1,0.1,7.8,20.7,8.5,21.4c4.8,1.9,24.4,2.2,29.8,0.2
			c0.5-0.7,6.3-17.3,7.7-21.2c-0.4,0.6-2.2,1.1-2.2,1.1C394.4,349.4,359.7,348.9,356,347.5z"/>
		<path fill="#FFFFFF" d="M402.7,342.4c1.6-4.6-3.1-9.4-6.6-10.3c-1.8-0.5-9.7,0.6-15.6,1.7c-8.2,1.5-23.4-6.2-29.5,1.8
			c-3.7,4.8-1.6,6.9,0.1,8.4c1.5,1.4,6.1,2.7,7.3,2.7c0.8,0.3,10.4,0.7,10.4,0.7c0.3,0,9.7,0.2,15.1,0.2c3.9,0,12.4,0.1,15.5-1.7
			C399.4,345.9,401.4,345.4,402.7,342.4z"/>
		<path fill="#FFFFFF" d="M369.7,331.8c1.8,0.3,5.2,1.1,8.6,1c3.1-0.1,6.2-0.9,8.3-1.2c3.9-0.5,4.9-0.7,7.7-0.8
			c2.1-2.6-3.3-10.5-8.1-10c-1.7,0-5.3,3-9.4,2.2c-4-0.8-8.5-1.6-10-1.2c-12.3,3.7-7.9,9-7.9,9c0.3,0,1.9-0.2,3.7,0.1
			C364.8,331.1,366.4,331.2,369.7,331.8z"/>
		<path fill="#FFFFFF" d="M373.1,321.1c0.5,0.1,4.4,0.8,4.9,0.8c1.4,0.1,3.2-0.3,5.2-1.3c0.4-0.2,0.7-0.3,0.7-0.3
			c1.3-0.4,1.1-3.1,0.7-4c-0.2-0.6-1.3-1.8-2.7-2c-0.2,0-0.5-0.1-0.6-0.2c-0.5-0.3-0.6-0.5-0.8-1c-0.3-0.7-0.5-1.2-0.8-1.9
			c-1.7-4.7-0.4-5-1.3-3.2c-0.5,1-0.4,2.4-6.3,5.8c-2.4,1-3,3.4-3,3.4c-0.6,1.2-0.2,2.9-0.2,3.2
			C371.5,320.6,373.1,321.1,373.1,321.1z"/>
	</g>
	<path fill="none" stroke="#FFFFFF" stroke-width="2" stroke-linecap="round" stroke-miterlimit="10" d="M416.3,335.9
		c91.3,18.7,159.9,99.4,159.9,196.2c0,78.5-45.1,146.4-110.8,179.3"/>
	<path fill="none" stroke="#FFFFFF" stroke-width="2" stroke-linecap="round" stroke-miterlimit="10" d="M287,711.7
		c-66-32.8-111.4-100.8-111.4-179.5c0-95.4,66.7-175.2,155.9-195.4"/>
	<g>
		<path fill="#FFFFFF" d="M402.5,595.9c-2.9-5-9.3-5.7-14.4-4c-6.6,2.3-9.5,7.7-9.4,14.5c0,6.1,1.4,12.4,7.1,15.6
			c5.9,3.4,13.3,2.4,18.7-1.5c2.2-1.6,0.1-5.3-2.2-3.7c-3.6,2.6-8.2,3.9-12.6,2.3c-4.7-1.7-6.1-5.8-6.6-10.4
			c-0.4-4.8,0-9.7,4.8-12.1c3.3-1.7,8.8-2.2,10.9,1.4C400.2,600.5,403.9,598.3,402.5,595.9L402.5,595.9z"/>
		<path fill="#FFFFFF" d="M420.6,592.8c-16.8-4.8-18.4,23.6-5.3,29c7.3,3,15.4-0.3,17.6-8c2.3-7.9-1.9-15.9-9.4-18.8
			c-2.6-1-3.7,3.2-1.1,4.1c12,4.6,6.3,25.3-6.1,18.4c-7.4-4.1-8-23.8,3.3-20.6C422.1,597.7,423.3,593.5,420.6,592.8L420.6,592.8z"/>
		<g>
			<g>
				<path fill="#FFFFFF" d="M435.1,621.5c1.9,0,1.9-3,0-3C433.2,618.5,433.2,621.5,435.1,621.5L435.1,621.5z"/>
			</g>
		</g>
	</g>
	<path fill="#FFFFFF" d="M362.9,622.2c-5.5-5.3-11.5-10.2-16.5-16.1c-1.5-1.7-7.3-7.8-5.9-10.6c0.4-1,1.7-1.2,2.6-1.4
		c2.5-0.3,3.4,0.7,3,3.1c-0.4,2.2-3.1,4.7-4.5,6.2c-4,4-9.6,7.5-10,13.7c-0.3,4.4,2.6,9.5,6.9,11c9.1,3.3,19.3-8.2,24-14.6
		c1.6-2.2-2.1-4.4-3.7-2.2c-3.4,4.7-10.7,13.2-17,13c-2.2-0.1-3.6-1.2-4.8-3.1c-2.5-4.5,0.2-7.8,3.2-10.8c2-2.1,4.4-3.7,6.2-5.9
		c2.3-2.8,5.9-7.3,4.6-11.2c-1.3-4.1-6.8-4.2-10.2-3.1c-16.1,5.5,14.5,30.4,19.2,34.9C361.9,627.2,364.9,624.1,362.9,622.2
		L362.9,622.2z"/>
	<g>
		<path fill="#FFFFFF" d="M362.9,709.4c0.1,4.1,0.7,8.1,0.7,12.2c0,1.8,0.2,4.2-0.6,5.9c-0.8,1.7-3.8,2.9-4.1-0.3
			c-0.2-1.6-2.7-1.6-2.6,0c0.5,4.3,5.9,6.3,8.5,2.4c3.4-5.3,0.8-14.3,0.7-20.2C365.5,707.7,362.9,707.7,362.9,709.4L362.9,709.4z"/>
		<path fill="#FFFFFF" d="M373,716.3c2.5,0.1,7.2,0,8-3.2c0.5-2.1-1.3-4.1-3.2-4.7c-2.5-0.7-5.2,1.5-6.4,3.5
			c-1.3,2.3-1.4,5.3,0.2,7.5c2.4,3.3,6.8,2.6,10,1.1c1.5-0.7,0.2-2.9-1.3-2.2c-2.1,1-5.5,1.8-6.9-0.8c-1-1.9-0.3-4.4,1.2-5.7
			c1-0.9,3-1.8,3.6,0.1c0.8,2.1-4.4,1.8-5.3,1.8C371.4,713.7,371.4,716.2,373,716.3L373,716.3z"/>
		<path fill="#FFFFFF" d="M384.1,710.3c0.5,4.2,1.3,8.2,4.2,11.5c0.5,0.6,1.3,0.4,1.8,0c3.1-2.4,3.3-7.5,4.8-10.8
			c-0.7,0-1.5,0-2.2,0c1.9,3.4,2.7,8.1,5.9,10.6c0.5,0.4,1.5,0.1,1.8-0.5c1.8-3.7,1.6-7.7,3.1-11.5c0.6-1.5-1.9-2.2-2.5-0.7
			c-1.4,3.6-1.1,7.4-2.8,10.9c0.6-0.2,1.2-0.3,1.8-0.5c-2.7-2-3.5-6.8-5-9.7c-0.4-0.8-1.8-0.9-2.2,0c-1.4,3-1.7,8.2-4.4,10.3
			c0.6,0,1.2,0,1.8,0c-2.4-2.7-3-6.2-3.4-9.6C386.5,708.7,383.9,708.7,384.1,710.3L384.1,710.3z"/>
		<path fill="#FFFFFF" d="M407.7,716.4c2.9,0.5,6.9,0.5,8.5-2.6c1.1-2.1,0.2-4.7-2-5.5c-2.9-1-6.3,1.1-7.6,3.7
			c-1.3,2.6-0.9,5.9,1,8.1c2.9,3.2,7.1,1.8,10.1-0.5c1.3-1-0.5-2.8-1.8-1.8c-2,1.6-5.2,2.7-6.8,0c-1.2-2-0.8-4.7,1.1-6.1
			c0.9-0.7,4-1.9,4,0.3c0,2.5-4.2,2.2-5.7,2C406.7,713.6,406,716.1,407.7,716.4L407.7,716.4z"/>
		<path fill="#FFFFFF" d="M421.1,702.6c0,6.3-0.1,12.5,1.5,18.5c0.4,1.6,2.9,0.9,2.5-0.7c-1.5-5.9-1.4-11.8-1.4-17.9
			C423.6,700.9,421.1,700.9,421.1,702.6L421.1,702.6z"/>
		<g>
			<path fill="#FFFFFF" d="M428.1,709.7c1.4,3.6,1,7.7,2,11.4c0.4,1.6,2.9,0.9,2.5-0.7c-1-3.7-0.6-7.8-2-11.4
				C430,707.5,427.5,708.2,428.1,709.7L428.1,709.7z"/>
			<path fill="#FFFFFF" d="M432,714.1c0.4-2.2,2.5-4.2,4.8-3.3c1.5,0.6,2.2-1.9,0.7-2.5c-3.6-1.5-7.4,1.6-8,5.1
				C429.3,715,431.7,715.7,432,714.1L432,714.1z"/>
		</g>
		<path fill="#FFFFFF" d="M312.5,702.2c0.8,5.9-0.6,12.5,1.8,18.2c0.6,1.5,3.1,0.8,2.5-0.7c-2.3-5.6-1-12.3-1.8-18.2
			C314.7,699.9,312.3,700.6,312.5,702.2L312.5,702.2z"/>
		<g>
			<path fill="#FFFFFF" d="M328.9,709.2c-2.4-1-5.3-1.3-7.4,0.5c-1.6,1.5-2.1,3.9-1.9,6.1c0.3,2.1,1.2,4.2,3.1,5.3
				c2.5,1.3,5.1,0.1,7.1-1.5c1.3-1-0.5-2.8-1.8-1.8c-1.1,0.9-2.8,1.8-4.2,1c-1.1-0.7-1.6-2.2-1.7-3.4c-0.1-1.3,0.1-2.8,1.1-3.7
				c1.4-1.2,3.4-0.6,4.9,0.1C329.8,712.4,330.4,709.9,328.9,709.2L328.9,709.2z"/>
			<path fill="#FFFFFF" d="M327.5,710.9c0,3.1,0.2,6.2,1.1,9.2c0.5,1.6,2.9,0.9,2.5-0.7c-0.8-2.8-1-5.6-1-8.5
				C330.1,709.2,327.5,709.2,327.5,710.9L327.5,710.9z"/>
		</g>
		<path fill="#FFFFFF" d="M334.7,710c-0.3,4.2,0.1,10.8,5.7,11c5.8,0.2,5-7.5,5-11.3c0-1.7-2.6-1.7-2.6,0c0,3.4,0.2,6.8,0.1,10.2
			c0,1.2-0.1,2.4-0.2,3.6c0,0.8-0.1,1.6-0.3,2.4c-1.6,2.4-3.1,2.5-4.4,0.1c-0.3-1.6-2.8-0.9-2.5,0.7c0.8,3.8,6.1,5,8.5,1.8
			c1.3-1.7,1.2-4.2,1.3-6.2c0.2-4.2,0.1-8.4,0-12.6c-0.9,0-1.7,0-2.6,0c0,2.4,1,9.2-2.8,8.6c-3.4-0.5-2.9-5.8-2.7-8.3
			C337.4,708.3,334.8,708.3,334.7,710L334.7,710z"/>
		<path fill="#FFFFFF" d="M307.1,708.8c-2.1-1.4-4.8-2.3-6.9-0.5c-1.7,1.4-2.3,3.8-2.2,6c0.1,2.3,1.1,4.7,3.1,6.1
			c2.5,1.8,5.6,1,8.2-0.2c1.5-0.7,0.2-3-1.3-2.2c-1.6,0.8-3.8,1.5-5.5,0.3c-1.2-0.9-1.8-2.5-1.9-3.9c-0.1-1.3,0.1-2.9,1.1-3.9
			c1.3-1.1,3-0.1,4.2,0.7C307.1,711.9,308.4,709.7,307.1,708.8L307.1,708.8z"/>
		<path fill="#FFFFFF" d="M440.9,710.1c-0.5,3.7,0.2,10.9,5.3,11.2c5.1,0.3,6-8.1,5.6-11.6c-0.2-1.6-2.5-1.7-2.6,0
			c-0.1,4.2,0.1,8.3,0.2,12.5c0,1,0.1,1.9,0,3c-0.2,2.8-3.5,7.2-5.3,1.9c-0.5-1.6-3-0.9-2.5,0.7c1.5,4.5,7.5,6.4,9.7,1.1
			c0.9-2.2,0.7-4.7,0.6-7c-0.2-4-0.3-8.1-0.2-12.1c-0.9,0-1.7,0-2.6,0c0.3,2.1-0.4,11.7-4.9,7.5c-1.5-1.4-1.1-5.3-0.9-7.2
			C443.7,708.5,441.1,708.5,440.9,710.1L440.9,710.1z"/>
	</g>
	<path fill="#994A6E" d="M637.9,406.6c2.7,8.3-7.5,39.3-7.5,39.3l-25.6-3.7c1.6-4.1-8-26.9-13-34.8C591,406.1,634,408,637.9,406.6z"
		/>
	<path fill="#994A6E" d="M112.9,405.1c-2.7,8.3,7.5,39.3,7.5,39.3l25.6-3.7c-1.6-4,7.7-26.2,12.8-34.4
		C159.7,404.8,116.8,406.5,112.9,405.1z"/>
	<path fill="#B5557C" d="M626.2,414.5c0,0,3.2-4.8-5.4-5.8c-4.4-0.5-22.1-0.7-24.3,0.4c-4,1.3-7.6-2.5-5-6.3
		c4.6-5.7,45.2,1.2,51.1-12.6c5.9-13.9-6.8,62.4-3.6,78.9c3.2,16.5,8.6,57.5,5,63.3c-4.5,7.2-23.6,7.9-23.2,8.9"/>
	<path fill="#B5557C" d="M126.6,413c0,0-2.5-4.1,3.4-5.8c4.3-1.2,22.1-0.7,24.3,0.4c4,1.3,7.6-2.5,5-6.3
		c-4.6-5.7-45.2,1.2-51.1-12.6c-5.9-13.9,6.8,62.4,3.6,78.9c-3.2,16.5-8.6,57.5-5,63.3c4.5,7.2,23.6,7.9,23.2,8.9"/>
	<path fill="#D2608B" d="M470.9,426.3l-92,0.1l-94.7-0.1c-14.9-0.5-152.5-4.4-157.6-13.3v132c5.7,29.3,164,25.6,164,25.6l88.3,0.2
		l85.8-0.2c0,0,156,3.5,161.5-25.7V413C621.2,421.8,485.3,425.7,470.9,426.3z"/>
	<g>
		<path fill="#FFFFFF" d="M512.4,512.9c-2.4,5-4.5,9-9.2,12.5c-8.6,6.6-10.6-13-11.3-16.3c-2.2-10.3,0.9-18.9,3.8-28.3
			c1.7-5.2-8.2-8.1-9.9-2.9c-4.2,12.8-12.4,30.9-18.7,42c0,0-2.8,6.1-4.9,5.5c-3.2-1.3-1.8-11.1-1.7-15.5c0.2-6.9,1-13.4,0.1-20.2
			c-1.6-11.5-14.4-20.9-25.1-8.7c-4.3,4.9-7,10.6-10.7,16.8c0.7-8.1,2.6-18.2-1.3-22c-1.8-1.7-4.8-4-7.5-4.1
			c-18-0.5-25,30.6-32,42.9c-6.2,10.9-13.1,9.8-14.9-10.2c-0.8-8.5,3.1-16.3,3.4-24.9c0.2-5.4-8-6-9.3-0.7
			c-1.9,7.7-3.2,14.5-5.4,22.2c-1.3,4.4-6.9,13.6-9,17.6c-2.3,4.3-7.1,7.8-8.3,2.3c-3.5-16.3,1-28.8-2.4-45.1
			c-1.5-2.6-2.7-7.5-6.6-7.5c-17.6,0.1-18.5,20.4-24.2,30.4c0.2-7.6,3.7-24.4-3.4-28.7c-2.2-1.3-2.3-2.2-5.4-2.2
			c-17,0.1-24.3,19.3-31.4,33.6c2.1-13.2,4.5-36.2-7.5-39.7c-12.4-3.7-17.2,7.6-26.7,17.6c-5.7,6,4,9.6,8.6,5.4
			c7.4-6.7,10.4-16.7,16.3-13c3.6,2.1-1.4,36.7-7.6,59.1c-1.5,5.5,8.9,7.7,12,3.3c13.2-19.1,26.4-59.6,35-55.2
			c3.2,4,1.2,36.9-2.4,49.8c2,7.7,7.9,5.6,10.1,0.8c7.6-16.7,14.3-45.3,23.9-48.2c5.4,0.2-4.2,48.7,9.3,52.4
			c8.9,2.5,19.7-7.4,24.1-19.9c-0.2,8.1,2.9,18.2,13.1,17.8c23-0.8,26.9-51.3,39.6-50c3.5,1.3-1.5,28.8-4.4,42.9
			c-1.1,5.5,5.6,8.2,8.8,3.7c4.8-6.8,6.4-15.9,10.8-23c11.5-18.3,22-24.6,21.5-5.7c-0.3,10.4-3.8,26.8,6,34.2
			c8.3,6.2,17.9-7.6,25.1-22.2c0.2,8,2.2,15.6,9.3,21.7c11.6,10.1,24.3-6.6,28.7-15.7C523.4,512.2,515.1,507.3,512.4,512.9z"/>
		<path fill="#FFFFFF" d="M368.8,465.9c6.2,0,6.2-9.6,0-9.6C362.5,456.3,362.5,465.9,368.8,465.9z"/>
		<path fill="#FFFFFF" d="M494.3,463c6.2,0,6.2-9.6,0-9.6C488.1,453.3,488.1,463,494.3,463z"/>
	</g>
</g>
<path fill="#FBE1E3" stroke="#FFFFFF" stroke-miterlimit="10" d="M1061.9,950.1H860.2c-6.6,0-12-5.4-12-12V828c0-6.6,5.4-12,12-12
	h201.7c6.6,0,12,5.4,12,12v110.1C1073.9,944.7,1068.5,950.1,1061.9,950.1z"/>
<circle fill="#F5B4B9" cx="890.7" cy="854.7" r="33.2"/>
<g>
	<path fill="#FFFFFF" d="M873,859.5c0,0-1.5-0.4-2.2-0.9c0.1,0.1,6.7,17.8,7.3,18.3c4.1,1.6,20.9,1.9,25.5,0.2
		c0.4-0.6,5.4-14.8,6.6-18.1c-0.3,0.5-1.9,1-1.9,1C905.9,861.1,876.3,860.7,873,859.5z"/>
	<path fill="#FFFFFF" d="M913,856.1c1.4-3.9-2.6-8-5.7-8.8c-1.6-0.4-8.3,0.5-13.3,1.4c-7.1,1.3-20-5.3-25.3,1.6
		c-3.1,4.1-1.4,5.9,0,7.2c1.3,1.2,5.2,2.3,6.3,2.3c0.7,0.2,8.9,0.6,8.9,0.6c0.2,0,8.3,0.2,13,0.2c3.3,0,10.6,0.1,13.3-1.4
		C910.2,859.1,911.9,858.6,913,856.1z"/>
	<path fill="#FFFFFF" d="M884.8,847.8c1.5,0.3,4.4,1,7.3,0.9c2.7-0.1,5.3-0.8,7.1-1c3.4-0.4,4.2-0.6,6.6-0.7c1.8-2.2-2.8-9-6.9-8.6
		c-1.4,0-4.5,2.6-8.1,1.9c-3.5-0.7-7.2-1.4-8.5-1c-10.5,3.2-6.8,7.7-6.8,7.7c0.2,0,1.6-0.1,3.2,0.1
		C880.6,847.2,881.9,847.3,884.8,847.8z"/>
	<path fill="#FFFFFF" d="M887.7,839.5c0.4,0,3.7,0.7,4.2,0.7c1.2,0.1,2.8-0.2,4.4-1.1c0.4-0.2,0.6-0.3,0.6-0.3
		c1.1-0.3,0.9-2.7,0.6-3.5c-0.2-0.5-1.1-1.5-2.3-1.7c-0.2,0-0.4-0.1-0.5-0.2c-0.4-0.2-0.5-0.5-0.7-0.8c-0.3-0.6-0.5-1.1-0.7-1.6
		c-1.4-4-0.4-4.3-1.1-2.7c-0.4,0.9-0.4,2.1-5.4,5c-2,0.9-2.6,2.9-2.6,2.9c-0.5,1-0.2,2.5-0.2,2.7
		C886.3,839.1,887.7,839.5,887.7,839.5z"/>
</g>
<path fill="#F5B4B9" d="M903.9,861.6c-0.5,1.2-2,2.3-2.1,0.8c-0.2-3.1,1.4-10.5,0.4-12.4c-0.4-0.7-1.3-1.6-2.3-1.6
	c-4.6,0-6,5.4-7.3,8c0-2,0.4-5.5-0.5-7c-0.4-0.7-1-1.1-1.8-1.1c-4.5,0-6.4,4.9-8.2,8.7c1.1-1.1,2-6.9-0.6-8.8
	c-2.3-1.7-5.5,0.3-6.5,2.7c-0.4,0.9-0.1,0.7,0.2,1.1c0.6,0.8,1.8,1.3,2.7-0.5c0.5-0.9,1.4-1.6,2.3-0.8c1,0.6-0.4,7.7-2.7,14.3
	c-0.5,1.4,1.9,2,2.6,0.8c2-3.3,7.6-15.7,9.8-14.5c0.8,1,0.3,9.8-0.6,13.1c0.5,2,2.5,1.3,3,0c1.9-5.2,4.5-13.5,6.9-13.1
	c2.2,0.7-2.3,13.7,1.3,14.7c1.4,0.4,3.8-1,5-2.3c0.3-0.3,0.4-1-0.4-1.8C904.9,861.5,904.4,861.3,903.9,861.6"/>
<g>
	<g>
		<path fill="#FFFFFF" stroke="#F5B4B9" stroke-miterlimit="10" d="M1326.7,948.3H1125c-6.6,0-12-5.4-12-12V826.2
			c0-6.6,5.4-12,12-12h201.7c6.6,0,12,5.4,12,12v110.1C1338.7,942.9,1333.3,948.3,1326.7,948.3z"/>
		<circle fill="#F5B4B9" cx="1155.4" cy="852.9" r="33.2"/>
	</g>
	<g>
		<path fill="#FFFFFF" d="M1137.3,858.6c0,0-1.5-0.4-2.2-0.9c0.1,0.1,6.7,17.8,7.3,18.3c4.1,1.6,20.9,1.9,25.5,0.2
			c0.4-0.6,5.4-14.8,6.6-18.1c-0.3,0.5-1.9,1-1.9,1C1170.2,860.2,1140.6,859.7,1137.3,858.6z"/>
		<path fill="#FFFFFF" d="M1177.3,855.1c1.4-3.9-2.6-8-5.7-8.8c-1.6-0.4-8.3,0.5-13.3,1.4c-7.1,1.3-20-5.3-25.3,1.6
			c-3.1,4.1-1.4,5.9,0,7.2c1.3,1.2,5.2,2.3,6.3,2.3c0.7,0.2,8.9,0.6,8.9,0.6c0.2,0,8.3,0.2,13,0.2c3.3,0,10.6,0.1,13.3-1.4
			C1174.5,858.1,1176.2,857.6,1177.3,855.1z"/>
		<path fill="#FFFFFF" d="M1149.1,846.9c1.5,0.3,4.4,1,7.3,0.9c2.7-0.1,5.3-0.8,7.1-1c3.4-0.4,4.2-0.6,6.6-0.7
			c1.8-2.2-2.8-9-6.9-8.6c-1.4,0-4.5,2.6-8.1,1.9c-3.5-0.7-7.2-1.4-8.5-1c-10.5,3.2-6.8,7.7-6.8,7.7c0.2,0,1.6-0.1,3.2,0.1
			C1144.9,846.3,1146.2,846.3,1149.1,846.9z"/>
		<path fill="#FFFFFF" d="M1152,838.6c0.4,0,3.7,0.7,4.2,0.7c1.2,0.1,2.8-0.2,4.4-1.1c0.4-0.2,0.6-0.3,0.6-0.3
			c1.1-0.3,0.9-2.7,0.6-3.5c-0.2-0.5-1.1-1.5-2.3-1.7c-0.2,0-0.4-0.1-0.5-0.2c-0.4-0.2-0.5-0.5-0.7-0.8c-0.3-0.6-0.5-1.1-0.7-1.6
			c-1.4-4-0.4-4.3-1.1-2.7c-0.4,0.9-0.4,2.1-5.4,5c-2,0.9-2.6,2.9-2.6,2.9c-0.5,1-0.2,2.5-0.2,2.7
			C1150.6,838.2,1152,838.6,1152,838.6z"/>
	</g>
	<path fill="#D2608B" d="M1169.3,860.6c-0.5,1.2-2,2.3-2.1,0.8c-0.2-3.1,1.4-10.5,0.4-12.4c-0.4-0.7-1.3-1.6-2.3-1.6
		c-4.6,0-6,5.4-7.3,8c0-2,0.4-5.5-0.5-7c-0.4-0.7-1-1.1-1.8-1.1c-4.5,0-6.4,4.9-8.2,8.7c1.1-1.1,2-6.9-0.6-8.8
		c-2.3-1.7-5.5,0.3-6.5,2.7c-0.4,0.9-0.1,0.7,0.2,1.1c0.6,0.8,1.8,1.3,2.7-0.5c0.5-0.9,1.4-1.6,2.3-0.8c1,0.6-0.4,7.7-2.7,14.3
		c-0.5,1.4,1.9,2,2.6,0.8c2-3.3,7.6-15.7,9.8-14.5c0.8,1,0.3,9.8-0.6,13.1c0.5,2,2.5,1.3,3,0c1.9-5.2,4.5-13.5,6.9-13.1
		c2.2,0.7-2.3,13.7,1.3,14.7c1.4,0.4,3.8-1,5-2.3c0.3-0.3,0.4-1-0.4-1.8C1170.2,860.6,1169.7,860.4,1169.3,860.6"/>
</g>
<g>
	<g>
		<g>
			<path fill="#FBE1E3" stroke="#FFFFFF" stroke-miterlimit="10" d="M1817.3,968.8l-417.8,7.8c-6.6,0.1-12.1-5.2-12.2-11.8
				l-3.3-174.9c-0.1-6.6,5.2-12.1,11.8-12.2l417.8-7.8c6.6-0.1,12.1,5.2,12.2,11.8l3.3,174.9
				C1829.2,963.1,1823.9,968.6,1817.3,968.8z"/>
		</g>
	</g>
</g>
<g>
	<path fill="#FBE1E3" stroke="#FFFFFF" stroke-miterlimit="10" d="M1824,985.6h-417.9c-6.6,0-12-5.4-12-12v-175c0-6.6,5.4-12,12-12
		H1824c6.6,0,12,5.4,12,12v175C1836,980.2,1830.6,985.6,1824,985.6z"/>
</g>
<g>
	<g>
		<path fill="#FFFFFF" d="M1416.5,825.9c0,0-1.3-0.3-1.9-0.8c0.1,0,5.8,15.3,6.3,15.8c3.6,1.4,18.1,1.6,22.1,0.2
			c0.4-0.5,4.7-12.8,5.7-15.7c-0.3,0.4-1.6,0.8-1.6,0.8C1444.9,827.3,1419.3,826.9,1416.5,825.9z"/>
		<path fill="#FFFFFF" d="M1451,822.9c1.2-3.4-2.3-7-4.9-7.6c-1.4-0.3-7.2,0.4-11.5,1.2c-6.1,1.1-17.3-4.6-21.9,1.3
			c-2.7,3.5-1.2,5.1,0,6.2c1.1,1,4.5,2,5.4,2c0.6,0.2,7.7,0.5,7.7,0.5c0.2,0,7.2,0.2,11.2,0.2c2.9,0,9.2,0.1,11.5-1.2
			C1448.6,825.5,1450.1,825.1,1451,822.9z"/>
		<path fill="#FFFFFF" d="M1426.6,815.8c1.3,0.2,3.8,0.8,6.3,0.7c2.3-0.1,4.6-0.7,6.1-0.9c2.9-0.4,3.6-0.5,5.7-0.6
			c1.6-1.9-2.4-7.8-6-7.4c-1.2,0-3.9,2.2-7,1.6c-3-0.6-6.3-1.2-7.4-0.9c-9.1,2.7-5.9,6.7-5.9,6.7c0.2,0,1.4-0.1,2.7,0.1
			C1423,815.2,1424.2,815.3,1426.6,815.8z"/>
		<path fill="#FFFFFF" d="M1429.1,808.6c0.4,0,3.2,0.6,3.6,0.6c1.1,0.1,2.4-0.2,3.8-0.9c0.3-0.2,0.5-0.3,0.5-0.3
			c1-0.3,0.8-2.3,0.5-3c-0.2-0.5-0.9-1.3-2-1.5c-0.1,0-0.3-0.1-0.5-0.2c-0.4-0.2-0.5-0.4-0.6-0.7c-0.2-0.5-0.4-0.9-0.6-1.4
			c-1.3-3.5-0.3-3.7-0.9-2.3c-0.3,0.8-0.3,1.8-4.7,4.3c-1.8,0.7-2.2,2.5-2.2,2.5c-0.4,0.9-0.1,2.2-0.2,2.4
			C1428,808.2,1429.1,808.6,1429.1,808.6z"/>
	</g>
	<path fill="#D2608B" d="M1443,826.6c-0.5,1-1.8,2-1.9,0.7c-0.2-2.7,1.2-9.1,0.4-10.7c-0.3-0.6-1.1-1.4-2-1.4c-4,0-5.2,4.7-6.3,6.9
		c0-1.7,0.3-4.7-0.4-6.1c-0.3-0.6-0.9-1-1.6-1c-3.9,0-5.5,4.2-7.1,7.5c1-1,1.8-5.9-0.5-7.6c-2-1.5-4.7,0.2-5.6,2.3
		c-0.3,0.8-0.1,0.6,0.1,0.9c0.5,0.7,1.5,1.1,2.4-0.4c0.4-0.7,1.2-1.4,2-0.7c0.8,0.5-0.3,6.6-2.3,12.3c-0.4,1.2,1.6,1.8,2.2,0.7
		c1.7-2.9,6.5-13.6,8.5-12.6c0.7,0.9,0.3,8.4-0.5,11.4c0.5,1.8,2.2,1.1,2.6,0c1.6-4.5,3.9-11.7,6-11.4c1.9,0.6-2,11.8,1.1,12.7
		c1.2,0.3,3.2-0.9,4.4-2c0.2-0.2,0.3-0.9-0.3-1.6C1443.9,826.5,1443.4,826.4,1443,826.6"/>
</g>
<g>
	<g>
		<path fill="#FFFFFF" d="M1537.3,824.1c-0.7,1.4-1.3,2.5-2.6,3.5c-2.4,1.8-3-3.7-3.2-4.6c-0.6-2.9,0.2-5.3,1.1-8
			c0.5-1.5-2.3-2.3-2.8-0.8c-1.2,3.6-3.5,8.7-5.3,11.8c0,0-0.8,1.7-1.4,1.5c-0.9-0.4-0.5-3.1-0.5-4.4c0-1.9,0.3-3.8,0-5.7
			c-0.5-3.2-4.1-5.9-7.1-2.4c-1.2,1.4-2,3-3,4.7c0.2-2.3,0.7-5.1-0.4-6.2c-0.5-0.5-1.4-1.1-2.1-1.1c-5.1-0.1-7,8.6-9,12.1
			c-1.8,3.1-3.7,2.8-4.2-2.9c-0.2-2.4,0.9-4.6,0.9-7c0-1.5-2.3-1.7-2.6-0.2c-0.5,2.2-0.9,4.1-1.5,6.2c-0.4,1.2-1.9,3.8-2.5,5
			c-0.6,1.2-2,2.2-2.3,0.7c-1-4.6,0.3-8.1-0.7-12.7c-0.4-0.7-0.8-2.1-1.9-2.1c-4.9,0-5.2,5.8-6.8,8.6c0-2.1,1-6.9-1-8.1
			c-0.6-0.4-0.6-0.6-1.5-0.6c-4.8,0-6.9,5.4-8.9,9.5c0.6-3.7,1.3-10.2-2.1-11.2c-3.5-1-4.8,2.2-7.5,5c-1.6,1.7,1.1,2.7,2.4,1.5
			c2.1-1.9,2.9-4.7,4.6-3.7c1,0.6-0.4,10.3-2.1,16.6c-0.4,1.5,2.5,2.2,3.4,0.9c3.7-5.4,7.4-16.8,9.9-15.5c0.9,1.1,0.3,10.4-0.7,14
			c0.6,2.2,2.2,1.6,2.8,0.2c2.1-4.7,4-12.8,6.7-13.6c1.5,0.1-1.2,13.7,2.6,14.8c2.5,0.7,5.5-2.1,6.8-5.6c-0.1,2.3,0.8,5.1,3.7,5
			c6.5-0.2,7.6-14.4,11.2-14.1c1,0.4-0.4,8.1-1.3,12.1c-0.3,1.5,1.6,2.3,2.5,1c1.4-1.9,1.8-4.5,3-6.5c3.2-5.2,6.2-6.9,6.1-1.6
			c-0.1,2.9-1.1,7.5,1.7,9.6c2.3,1.8,5-2.1,7.1-6.3c0.1,2.3,0.6,4.4,2.6,6.1c3.3,2.8,6.9-1.9,8.1-4.4
			C1540.4,823.9,1538.1,822.6,1537.3,824.1z"/>
		<path fill="#FFFFFF" d="M1496.8,810.9c1.7,0,1.7-2.7,0-2.7C1495.1,808.2,1495.1,810.9,1496.8,810.9z"/>
		<path fill="#FFFFFF" d="M1532.2,810.1c1.7,0,1.7-2.7,0-2.7C1530.5,807.4,1530.5,810.1,1532.2,810.1z"/>
	</g>
	<g>
		<path fill="#FFFFFF" d="M1504.6,837.1c-0.5-0.9-1.6-1-2.5-0.7c-1.2,0.4-1.6,1.3-1.6,2.5c0,1.1,0.2,2.2,1.2,2.7
			c1,0.6,2.3,0.4,3.2-0.3c0.4-0.3,0-0.9-0.4-0.6c-0.6,0.5-1.4,0.7-2.2,0.4c-0.8-0.3-1.1-1-1.1-1.8c-0.1-0.8,0-1.7,0.8-2.1
			c0.6-0.3,1.5-0.4,1.9,0.3C1504.2,837.9,1504.9,837.5,1504.6,837.1L1504.6,837.1z"/>
		<path fill="#FFFFFF" d="M1507.8,836.5c-2.9-0.8-3.2,4.1-0.9,5c1.3,0.5,2.7-0.1,3.1-1.4c0.4-1.4-0.3-2.8-1.6-3.3
			c-0.4-0.2-0.6,0.5-0.2,0.7c2.1,0.8,1.1,4.4-1.1,3.2c-1.3-0.7-1.4-4.1,0.6-3.6C1508,837.4,1508.2,836.7,1507.8,836.5L1507.8,836.5z
			"/>
	</g>
	<path fill="#FFFFFF" d="M1497.7,841.7c-1-0.9-2-1.8-2.9-2.8c-0.3-0.3-1.3-1.3-1-1.8c0.1-0.2,0.3-0.2,0.5-0.2
		c0.4-0.1,0.6,0.1,0.5,0.5c-0.1,0.4-0.5,0.8-0.8,1.1c-0.7,0.7-1.7,1.3-1.7,2.4c-0.1,0.8,0.5,1.7,1.2,1.9c1.6,0.6,3.4-1.4,4.2-2.5
		c0.3-0.4-0.4-0.8-0.6-0.4c-0.6,0.8-1.9,2.3-3,2.3c-0.4,0-0.6-0.2-0.8-0.5c-0.4-0.8,0-1.4,0.6-1.9c0.4-0.4,0.8-0.6,1.1-1
		c0.4-0.5,1-1.3,0.8-2c-0.2-0.7-1.2-0.7-1.8-0.5c-2.8,1,2.5,5.3,3.3,6.1C1497.5,842.5,1498.1,842,1497.7,841.7L1497.7,841.7z"/>
</g>
<g>
	<g>
		<path fill="#FFFFFF" stroke="#F5B4B9" stroke-miterlimit="10" d="M1793.3,681.3l-419.9-0.8c-6.6,0-12-5.4-12-12l1.1-574.9
			c0-6.6,5.4-12,12-12l419.9,0.8c6.6,0,12,5.4,12,12l-1.1,574.9C1805.3,675.9,1799.9,681.3,1793.3,681.3z"/>
	</g>
</g>
<g>
	<g>
		<path fill="#FFFFFF" stroke="#F5B4B9" stroke-miterlimit="10" d="M1809.7,692.4h-419.9c-6.6,0-12-5.4-12-12V105.5
			c0-6.6,5.4-12,12-12h419.9c6.6,0,12,5.4,12,12v574.9C1821.7,687,1816.3,692.4,1809.7,692.4z"/>
	</g>
	<g>
		<g>
			<g>
				<g>
					<path fill="#FBE1E3" d="M1553.1,96.6c0,2.7-2.2,4.9-4.9,4.9c-2.7,0-4.9-2.2-4.9-4.9c0-0.9,0.2-1.7,0.7-2.4l8.4-0.2
						C1552.8,94.8,1553.1,95.7,1553.1,96.6z"/>
					<circle fill="#FBE1E3" cx="1558" cy="108.9" r="4.9"/>
				</g>
				<circle fill="#FBE1E3" cx="1567.6" cy="120.6" r="4.9"/>
				<circle fill="#FBE1E3" cx="1578.6" cy="131.7" r="4.9"/>
			</g>
			<g>
				<g>
					<path fill="#FBE1E3" d="M1652.2,96.6c0,2.7,2.2,4.9,4.9,4.9c2.7,0,4.9-2.2,4.9-4.9c0-1-0.3-2-0.9-2.8l-8.1,0.1
						C1652.5,94.7,1652.2,95.6,1652.2,96.6z"/>
					<circle fill="#FBE1E3" cx="1647.3" cy="108.9" r="4.9"/>
				</g>
				<circle fill="#FBE1E3" cx="1637.7" cy="120.6" r="4.9"/>
				<circle fill="#FBE1E3" cx="1626.7" cy="131.7" r="4.9"/>
			</g>
		</g>
		<g>
			<g>
				<path fill="#F5B4B9" d="M1578.9,169.8c0,0-2-0.5-2.9-1.2c0.1,0.1,8.7,23,9.4,23.8c5.4,2.1,27.1,2.4,33.1,0.2
					c0.6-0.7,7-19.2,8.6-23.5c-0.5,0.6-2.5,1.2-2.5,1.2C1621.6,172,1583.1,171.4,1578.9,169.8z"/>
				<path fill="#F5B4B9" d="M1630.8,164.6c1.8-5.1-3.4-10.4-7.3-11.4c-2-0.5-10.7,0.7-17.3,1.8c-9.2,1.6-25.9-6.9-32.8,2
					c-4.1,5.3-1.8,7.7,0.1,9.4c1.6,1.5,6.8,3,8.1,3c0.9,0.3,11.6,0.7,11.6,0.7c0.3,0,10.8,0.3,16.8,0.3c4.3,0,13.8,0.1,17.3-1.9
					C1627.2,168.5,1629.4,167.8,1630.8,164.6z"/>
				<path fill="#F5B4B9" d="M1594.2,153.2c2,0.3,5.8,1.3,9.5,1.1c3.5-0.2,6.9-1,9.2-1.3c4.4-0.5,5.5-0.8,8.6-0.9
					c2.3-2.8-3.6-11.7-9-11.1c-1.9,0-5.9,3.4-10.5,2.4c-4.5-0.9-9.4-1.8-11-1.3c-13.6,4.1-8.8,10-8.8,10c0.3,0,2.1-0.2,4.1,0.1
					C1588.8,152.4,1590.5,152.5,1594.2,153.2z"/>
				<path fill="#F5B4B9" d="M1597.9,141.7c0.6,0.1,4.8,0.9,5.4,0.9c1.6,0.1,3.6-0.3,5.8-1.4c0.5-0.2,0.8-0.4,0.8-0.4
					c1.5-0.4,1.2-3.5,0.8-4.5c-0.3-0.7-1.4-1.9-3-2.2c-0.2,0-0.5-0.1-0.7-0.2c-0.5-0.3-0.7-0.6-0.9-1.1c-0.3-0.8-0.6-1.4-0.9-2.1
					c-1.9-5.2-0.5-5.5-1.4-3.5c-0.5,1.1-0.5,2.7-7,6.4c-2.6,1.1-3.4,3.8-3.4,3.8c-0.7,1.3-0.2,3.3-0.2,3.5
					C1596.2,141.2,1597.9,141.7,1597.9,141.7z"/>
			</g>
			<path fill="#FFFFFF" d="M1616.7,172c-0.6,1.3-2.3,2.5-2.4,0.9c-0.2-3.4,1.6-11.6,0.5-13.6c-0.4-0.7-1.4-1.7-2.6-1.7
				c-5.2,0-6.8,5.9-8.2,8.8c0-2.2,0.4-6-0.5-7.7c-0.4-0.8-1.1-1.3-2.1-1.3c-5.1,0-7.2,5.4-9.3,9.5c1.3-1.2,2.3-7.6-0.7-9.7
				c-2.6-1.9-6.2,0.3-7.3,3c-0.4,1-0.1,0.8,0.2,1.2c0.7,0.9,2,1.4,3.1-0.5c0.5-1,1.6-1.8,2.6-0.8c1.1,0.6-0.4,8.4-3,15.7
				c-0.5,1.6,2.1,2.2,2.9,0.9c2.3-3.7,8.5-17.3,11.1-16c0.9,1.1,0.3,10.7-0.7,14.5c0.6,2.2,2.9,1.4,3.4,0c2.1-5.7,5.1-14.9,7.8-14.5
				c2.5,0.8-2.6,15.1,1.4,16.2c1.6,0.4,4.2-1.1,5.7-2.6c0.3-0.3,0.4-1.2-0.4-2C1617.8,171.9,1617.2,171.8,1616.7,172"/>
		</g>
	</g>
</g>
<line fill="none" stroke="#CCCCCC" stroke-width="3" stroke-miterlimit="10" x1="759.5" y1="71" x2="759.5" y2="995"/>
</svg>
