<?xml version="1.0" encoding="utf-8"?>
<!-- Generator: Adobe Illustrator 18.1.1, SVG Export Plug-In . SVG Version: 6.00 Build 0)  -->
<!DOCTYPE svg PUBLIC "-//W3C//DTD SVG 1.1//EN" "http://www.w3.org/Graphics/SVG/1.1/DTD/svg11.dtd">
<svg version="1.1" id="Layer_1" xmlns="http://www.w3.org/2000/svg" xmlns:xlink="http://www.w3.org/1999/xlink" x="0px" y="0px"
	 viewBox="0 0 1920 1080" enable-background="new 0 0 1920 1080" xml:space="preserve">
<g>
	<g>
		<path fill="none" stroke="#F5B4B9" stroke-width="2" stroke-miterlimit="10" d="M464.7,341.1C543.1,144.9,734.9,6.3,959.1,6.3
			c224.6,0,416.8,139.2,494.9,336"/>
		<path fill="none" stroke="#F5B4B9" stroke-width="2" stroke-miterlimit="10" d="M1489.9,577.3
			c-19.8,275.9-249.9,493.5-530.9,493.5c-279.4,0-508.5-215.3-530.5-489"/>
	</g>
	<path fill="#F5B4B9" d="M1466.1,539.3c0,280-227,507.1-507.1,507.1c-280,0-507-227-507-507.1c0-280,227-507,507-507
		C1239.1,32.2,1466.1,259.3,1466.1,539.3z"/>
	<g>
		<path fill="#FFFFFF" d="M916,142c0,0-3.9-1-5.6-2.3c0.2,0.1,16.9,44.7,18.3,46.1c10.4,4.1,52.6,4.7,64.3,0.5
			c1.1-1.4,13.6-37.3,16.7-45.6c-0.9,1.2-4.8,2.4-4.8,2.4C998.8,146.1,924.2,145,916,142z"/>
		<path fill="#FFFFFF" d="M1016.7,131.1c3.5-9.9-6.6-20.2-14.3-22.2c-4-1-20.8,1.3-33.5,3.6c-17.8,3.2-50.4-13.4-63.7,3.9
			c-7.9,10.3-3.5,14.9,0.1,18.2c3.2,2.9,13.2,5.8,15.7,5.7c1.7,0.6,22.5,1.4,22.5,1.4c0.6,0,20.9,0.5,32.6,0.5
			c8.4,0,26.7,0.3,33.5-3.6C1009.7,138.7,1014,137.5,1016.7,131.1z"/>
		<path fill="#FFFFFF" d="M945.6,108.2c3.9,0.7,11.2,2.5,18.5,2.1c6.8-0.3,13.3-1.9,17.9-2.5c8.5-1.1,10.6-1.5,16.6-1.8
			c4.5-5.5-7.1-22.7-17.5-21.6c-3.6,0-11.4,6.5-20.3,4.7c-8.7-1.8-18.3-3.5-21.4-2.5c-26.5,8-17.1,19.4-17.1,19.4
			c0.6-0.1,4-0.3,8,0.1C935.1,106.7,938.5,106.9,945.6,108.2z"/>
		<path fill="#FFFFFF" d="M952.9,85.1c1.1,0.1,9.4,1.8,10.5,1.8c3.1,0.2,7-0.6,11.2-2.7c0.9-0.4,1.5-0.7,1.5-0.7
			c2.8-0.8,2.3-6.8,1.6-8.7c-0.5-1.4-2.8-3.8-5.7-4.3c-0.4-0.1-1-0.2-1.3-0.5c-1-0.6-1.4-1.2-1.7-2.1c-0.6-1.6-1.2-2.7-1.7-4.1
			c-3.6-10.1-0.9-10.8-2.7-6.8c-1,2.2-1,5.2-13.6,12.5c-5.1,2.2-6.5,7.4-6.5,7.4c-1.3,2.5-0.4,6.3-0.4,6.9
			C949.6,84.1,952.9,85.1,952.9,85.1z"/>
	</g>
	<path fill="none" stroke="#FFFFFF" stroke-width="2" stroke-linecap="round" stroke-miterlimit="10" d="M1046.1,117.1
		c196.7,40.2,344.7,214.3,344.7,422.9c0,169.1-97.2,315.5-238.8,386.3"/>
	<path fill="none" stroke="#FFFFFF" stroke-width="2" stroke-linecap="round" stroke-miterlimit="10" d="M767.5,926.8
		c-142.2-70.6-240-217.3-240-386.9c0-205.5,143.6-377.5,336-421"/>
	<g>
		<path fill="#FFFFFF" d="M1016.4,677.3c-6.2-10.7-20.1-12.3-31-8.6c-14.3,4.9-20.4,16.7-20.3,31.1c0.1,13.1,3.1,26.8,15.2,33.7
			c12.7,7.3,28.7,5.2,40.2-3.3c4.8-3.5,0.1-11.5-4.7-8c-7.8,5.7-17.7,8.4-27.1,5c-10.1-3.6-13.3-12.4-14.2-22.3
			c-1-10.4,0.1-20.8,10.3-26.1c7-3.6,18.9-4.8,23.5,3.1C1011.3,687.2,1019.3,682.5,1016.4,677.3L1016.4,677.3z"/>
		<path fill="#FFFFFF" d="M1055.3,670.6c-36.3-10.3-39.7,50.8-11.4,62.5c15.7,6.5,33.2-0.7,38-17.3c4.9-17.1-4-34.2-20.4-40.5
			c-5.6-2.1-8,6.8-2.5,8.9c25.9,10,13.6,54.4-13.2,39.6c-16-8.8-17.3-51.2,7-44.3C1058.6,681.2,1061.1,672.3,1055.3,670.6
			L1055.3,670.6z"/>
		<g>
			<g>
				<path fill="#FFFFFF" d="M1086.6,730.8c1.9,0,1.9-3,0-3C1084.7,727.8,1084.7,730.8,1086.6,730.8L1086.6,730.8z"/>
			</g>
		</g>
	</g>
	<path fill="#FFFFFF" d="M931,734.1c-11.9-11.5-24.7-22-35.6-34.6c-3.2-3.8-15.6-16.7-12.8-22.9c0.9-2.1,3.6-2.7,5.7-2.9
		c5.5-0.7,7.4,1.5,6.4,6.7c-0.8,4.7-6.6,10.2-9.8,13.3c-8.7,8.5-20.6,16.1-21.6,29.6c-0.7,9.5,5.7,20.5,14.9,23.8
		c19.7,7,41.7-17.6,51.7-31.4c3.5-4.8-4.5-9.5-8-4.7c-7.3,10.1-23,28.5-36.7,27.9c-4.8-0.2-7.9-2.5-10.3-6.7
		c-5.5-9.6,0.5-16.9,6.9-23.3c4.4-4.4,9.4-7.9,13.4-12.7c5-6,12.6-15.7,10-24.2c-2.8-8.8-14.7-9.1-21.9-6.6
		c-34.8,11.8,31.2,65.5,41.3,75.3C928.8,744.7,935.3,738.2,931,734.1L931,734.1z"/>
	<g>
		<path fill="#FFFFFF" d="M931,921.8c0.1,8.7,1.4,17.4,1.5,26.2c0,3.8,0.4,9-1.3,12.6c-1.8,3.7-8.1,6.2-8.8-0.6
			c-0.4-3.5-5.9-3.6-5.6,0c1,9.3,12.8,13.7,18.3,5.2c7.4-11.3,1.6-30.9,1.4-43.4C936.5,918.3,931,918.3,931,921.8L931,921.8z"/>
		<path fill="#FFFFFF" d="M952.8,936.8c5.5,0.1,15.6,0,17.2-7c1-4.4-2.7-8.9-6.8-10.1c-5.5-1.6-11.3,3.1-13.8,7.6
			c-2.8,5-2.9,11.5,0.5,16.2c5.2,7.2,14.6,5.6,21.6,2.4c3.2-1.5,0.4-6.3-2.8-4.8c-4.6,2.1-11.8,3.9-14.8-1.7
			c-2.2-4.1-0.7-9.4,2.7-12.3c2.1-1.8,6.4-3.8,7.8,0.1c1.6,4.5-9.4,3.9-11.5,3.9C949.2,931.1,949.2,936.7,952.8,936.8L952.8,936.8z"
			/>
		<path fill="#FFFFFF" d="M976.6,923.9c1.1,9,2.8,17.7,9,24.7c1.1,1.2,2.8,0.9,3.9,0c6.6-5.2,7.1-16.1,10.4-23.4c-1.6,0-3.2,0-4.8,0
			c4.1,7.4,5.8,17.5,12.8,22.9c1.1,0.9,3.2,0.2,3.8-1c3.8-7.9,3.5-16.7,6.6-24.8c1.3-3.3-4.1-4.8-5.4-1.5c-2.9,7.7-2.5,16-6.1,23.5
			c1.3-0.3,2.5-0.7,3.8-1c-5.8-4.4-7.4-14.8-10.8-20.9c-0.9-1.7-3.9-1.9-4.8,0c-2.9,6.5-3.7,17.7-9.6,22.2c1.3,0,2.6,0,3.9,0
			c-5.1-5.7-6.5-13.4-7.4-20.8C981.8,920.4,976.2,920.4,976.6,923.9L976.6,923.9z"/>
		<path fill="#FFFFFF" d="M1027.4,937c6.3,1.1,14.8,1,18.3-5.5c2.3-4.4,0.5-10.1-4.4-11.8c-6.2-2.1-13.6,2.4-16.4,7.9
			c-2.8,5.5-2,12.8,2.2,17.4c6.3,6.9,15.4,3.8,21.7-1.1c2.8-2.2-1.1-6.1-3.9-3.9c-4.4,3.4-11.1,5.8-14.7,0
			c-2.7-4.3-1.6-10.2,2.4-13.2c1.9-1.5,8.5-4,8.5,0.6c0,5.4-9,4.8-12.3,4.3C1025.4,931,1023.9,936.4,1027.4,937L1027.4,937z"/>
		<path fill="#FFFFFF" d="M1056.3,907.2c0,13.5-0.2,26.8,3.3,40c0.9,3.5,6.3,2,5.4-1.5c-3.3-12.6-3.1-25.5-3.1-38.5
			C1061.8,903.7,1056.3,903.7,1056.3,907.2L1056.3,907.2z"/>
		<g>
			<path fill="#FFFFFF" d="M1071.5,922.6c3,7.8,2.2,16.5,4.3,24.6c0.9,3.5,6.2,2,5.4-1.5c-2.1-8.1-1.3-16.7-4.3-24.6
				C1075.6,917.8,1070.2,919.2,1071.5,922.6L1071.5,922.6z"/>
			<path fill="#FFFFFF" d="M1079.9,932c0.8-4.7,5.3-9.1,10.4-7c3.3,1.4,4.7-4,1.5-5.4c-7.7-3.2-15.9,3.5-17.2,10.9
				C1074,934,1079.3,935.5,1079.9,932L1079.9,932z"/>
		</g>
		<path fill="#FFFFFF" d="M822.3,906.4c1.8,12.8-1.2,27,3.9,39.3c1.3,3.3,6.7,1.8,5.4-1.5c-5-12.1-2.1-26.5-3.9-39.3
			C827.2,901.4,821.8,902.9,822.3,906.4L822.3,906.4z"/>
		<g>
			<path fill="#FFFFFF" d="M857.7,921.6c-5.1-2.1-11.4-2.9-15.8,1.2c-3.5,3.3-4.6,8.4-4,13.1c0.6,4.5,2.7,9.1,6.8,11.3
				c5.3,2.9,10.9,0.2,15.2-3.2c2.8-2.2-1.2-6.1-3.9-3.9c-2.4,1.9-6,4-9,2.1c-2.3-1.5-3.4-4.7-3.7-7.3c-0.3-2.7,0.2-6,2.4-8
				c2.9-2.7,7.4-1.2,10.6,0.1C859.6,928.3,861,922.9,857.7,921.6L857.7,921.6z"/>
			<path fill="#FFFFFF" d="M854.7,925.2c0,6.7,0.5,13.4,2.4,19.8c1,3.4,6.3,2,5.4-1.5c-1.7-6-2.1-12.1-2.2-18.3
				C860.2,921.6,854.7,921.6,854.7,925.2L854.7,925.2z"/>
		</g>
		<path fill="#FFFFFF" d="M870.2,923.1c-0.7,9.1,0.3,23.2,12.3,23.7c12.4,0.5,10.8-16.2,10.7-24.4c0-3.6-5.6-3.6-5.6,0
			c0,7.3,0.3,14.7,0.2,22c-0.1,2.6-0.2,5.2-0.4,7.8c-0.1,1.7-0.3,3.4-0.7,5.1c-3.5,5.2-6.6,5.3-9.4,0.2c-0.7-3.5-6.1-2-5.4,1.5
			c1.7,8.2,13.1,10.8,18.3,4c2.7-3.6,2.6-9.1,2.9-13.4c0.5-9,0.1-18.1,0.1-27.2c-1.9,0-3.7,0-5.6,0c0.1,5.1,2.1,19.7-6,18.5
			c-7.3-1.1-6.3-12.4-5.9-17.8C876,919.6,870.5,919.6,870.2,923.1L870.2,923.1z"/>
		<path fill="#FFFFFF" d="M810.6,920.5c-4.5-3-10.3-4.9-15-1.2c-3.8,3-5,8.3-4.7,12.9c0.3,5,2.4,10.2,6.6,13.2
			c5.4,3.8,12.1,2.3,17.6-0.5c3.2-1.6,0.4-6.4-2.8-4.8c-3.5,1.8-8.2,3.3-11.8,0.7c-2.6-1.9-3.8-5.4-4.1-8.5
			c-0.2-2.7,0.2-6.4,2.3-8.3c2.7-2.4,6.5-0.3,9,1.4C810.8,927.3,813.6,922.5,810.6,920.5L810.6,920.5z"/>
		<path fill="#FFFFFF" d="M1099.1,923.5c-1.1,8.1,0.5,23.6,11.4,24.2c11,0.6,13-17.4,12.1-24.9c-0.4-3.5-5.5-3.7-5.6,0
			c-0.1,9,0.2,17.9,0.5,26.9c0.1,2.2,0.1,4.2,0,6.4c-0.4,6.1-7.5,15.6-11.3,4.1c-1.1-3.4-6.5-1.9-5.4,1.5
			c3.2,9.7,16.3,13.8,20.9,2.3c1.9-4.7,1.6-10.1,1.4-15.1c-0.3-8.7-0.6-17.4-0.5-26.1c-1.9,0-3.7,0-5.6,0
			c0.6,4.6-0.8,25.2-10.5,16.1c-3.3-3.1-2.5-11.3-1.9-15.4C1105.1,919.9,1099.5,920,1099.1,923.5L1099.1,923.5z"/>
	</g>
	<path fill="#994A6E" d="M1523.5,269.4c5.8,17.9-16.1,84.6-16.1,84.6l-55.2-8c3.5-8.8-17.2-58.1-28-75
		C1422.4,268.4,1515.2,272.5,1523.5,269.4z"/>
	<path fill="#994A6E" d="M392.2,266.1c-5.8,17.9,16.1,84.6,16.1,84.6l55.2-8c-3.4-8.7,16.5-56.5,27.5-74.2
		C493,265.5,400.5,269.1,392.2,266.1z"/>
	<path fill="#B5557C" d="M1498.4,286.5c0,0,6.9-10.3-11.7-12.4c-9.5-1.1-47.6-1.5-52.4,0.8c-8.6,2.7-16.4-5.3-10.8-13.6
		c9.9-12.4,97.5,2.6,110.1-27.2c12.7-29.9-14.6,134.6-7.8,170c6.8,35.5,18.6,123.9,10.8,136.4c-9.7,15.6-50.9,17-49.9,19.1"/>
	<path fill="#B5557C" d="M421.8,283.2c0,0-5.4-8.9,7.2-12.4c9.2-2.6,47.6-1.5,52.4,0.8c8.6,2.7,16.4-5.3,10.8-13.6
		c-9.9-12.4-97.5,2.6-110.1-27.2c-12.7-29.9,14.6,134.6,7.8,170c-6.8,35.5-18.6,123.9-10.8,136.4c9.7,15.6,50.9,17,49.9,19.1"/>
	<path fill="#D2608B" d="M1163.6,311.8L965.4,312l-204.1-0.2c-32.1-1.2-328.7-9.6-339.6-28.6v284.4c12.2,63,353.4,55.1,353.4,55.1
		l190.3,0.3l184.8-0.3c0,0,336.1,7.6,348-55.4V283.2C1487.7,302.2,1194.8,310.6,1163.6,311.8z"/>
	<g>
		<path fill="#FFFFFF" d="M1253.1,498.4c-5.2,10.7-9.8,19.4-19.8,26.9c-18.6,14.1-22.8-28-24.3-35.1c-4.8-22.1,1.9-40.7,8.3-61
			c3.6-11.3-17.7-17.5-21.4-6.3c-9,27.5-26.7,66.6-40.3,90.6c0,0-6.1,13.2-10.5,11.7c-6.8-2.7-3.9-24-3.7-33.4
			c0.4-14.8,2.2-28.9,0.1-43.6c-3.5-24.9-31.1-45.1-54.1-18.7c-9.2,10.6-15.1,22.9-23,36.2c1.5-17.5,5.7-39.3-2.8-47.4
			c-3.9-3.7-10.4-8.6-16.1-8.8c-38.8-1.1-53.9,65.9-69,92.4c-13.4,23.6-28.1,21.1-32.2-21.9c-1.7-18.4,6.8-35.2,7.3-53.6
			c0.3-11.7-17.3-12.8-20.1-1.5c-4,16.6-6.8,31.3-11.6,47.8c-2.7,9.5-14.9,29.3-19.5,38c-4.9,9.3-15.3,16.9-17.8,5
			c-7.6-35,2.1-62.2-5.1-97.1c-3.2-5.5-5.7-16.2-14.3-16.2c-37.8,0.1-39.9,44.1-52.2,65.5c0.3-16.3,8-52.7-7.3-61.8
			c-4.8-2.9-4.9-4.8-11.7-4.8c-36.6,0.2-52.5,41.5-67.8,72.4c4.5-28.5,9.7-78-16.1-85.6c-26.8-7.9-37,16.5-57.5,37.9
			c-12.4,13,8.7,20.7,18.5,11.7c15.9-14.5,22.4-36.1,35.1-28c7.8,4.6-3.1,79-16.4,127.4c-3.2,11.8,19.3,16.5,25.8,7.1
			c28.5-41.3,57-128.4,75.5-118.8c6.9,8.5,2.5,79.5-5.1,107.2c4.4,16.6,17,12.1,21.8,1.6c16.4-35.9,30.8-97.6,51.5-103.8
			c11.7,0.4-9.1,104.9,20,112.9c19.2,5.3,42.4-15.9,52-42.8c-0.5,17.5,6.3,39.2,28.3,38.5c49.6-1.6,57.9-110.6,85.4-107.8
			c7.6,2.8-3.3,62-9.6,92.5c-2.4,11.8,12.1,17.6,18.9,8c10.4-14.7,13.8-34.3,23.3-49.6c24.9-39.5,47.4-53,46.3-12.2
			c-0.6,22.5-8.1,57.8,13,73.7c17.8,13.4,38.5-16.4,54-47.9c0.5,17.3,4.8,33.6,20.1,46.8c25.1,21.7,52.5-14.3,61.9-33.8
			C1276.8,496.9,1258.9,486.4,1253.1,498.4z"/>
		<path fill="#FFFFFF" d="M943.6,397.2c13.4,0,13.4-20.7,0-20.7C930.2,376.5,930.2,397.2,943.6,397.2z"/>
		<path fill="#FFFFFF" d="M1214.1,390.9c13.3,0,13.3-20.7,0-20.7C1200.8,370.1,1200.8,390.9,1214.1,390.9z"/>
	</g>
</g>
</svg>
