<?xml version="1.0" encoding="utf-8"?>
<!-- Generator: Adobe Illustrator 18.1.1, SVG Export Plug-In . SVG Version: 6.00 Build 0)  -->
<!DOCTYPE svg PUBLIC "-//W3C//DTD SVG 1.1//EN" "http://www.w3.org/Graphics/SVG/1.1/DTD/svg11.dtd">
<svg version="1.1" xmlns="http://www.w3.org/2000/svg" xmlns:xlink="http://www.w3.org/1999/xlink" x="0px" y="0px"
	 viewBox="0 0 1080 1080" enable-background="new 0 0 1080 1080" xml:space="preserve">
<g id="Background">
	<path fill="#FEE086" d="M980.6,1077.6H99.8c-53.5,0-97.2-43.7-97.2-97.2V99.6c0-53.5,43.7-97.2,97.2-97.2h880.8
		c53.5,0,97.2,43.7,97.2,97.2v880.8C1077.8,1033.9,1034.1,1077.6,980.6,1077.6z"/>
</g>
<g id="Shadow">
	<path fill="#BFA865" d="M1077.8,974.6c0,56.8-46,102.8-102.8,102.8l-129.5,0.4L410.2,670.7c78.7-15.5,159.4-30.6,219.7-102.3
		C829.6,330.7,975,2.1,975,2.1c56.8,0,102.8,46,102.8,102.8V974.6z"/>
</g>
<g id="Stroke">
	<path fill="#EBA3B6" d="M127.7,466.5c37.5,177.8,217.7,278.9,409.4,185.2c82.1-40.1,15.1-148.3-66.9-108.2
		C366.6,594,297.6,533.9,270,447.4c-31.8-99.8-35.5-194.3-108.3-278.5C120.1,120.8,64.2,95.7,4.1,88.6c-0.9,5.5-1.5,11-1.5,16.7
		v117.6C102.6,253.3,111.1,387.8,127.7,466.5z"/>
</g>
<g id="Brushhandle">
	<path fill="#B18A75" d="M704.9,346.9c63.2,22.6,191-113,323.7-329.4C1013,7.9,994.7,2.3,975,2.3H712.1
		C656.7,192.2,649.8,327.2,704.9,346.9z"/>
</g>
<g id="Brush">
	<path fill="#6E3913" d="M682.1,339.5C536,349.7,521.7,458.8,502.8,541.9c-0.3,1.2-0.6,2.5-0.9,3.7c-0.7,2.9-1.3,5.7-2,8.5
		c-0.2,1-0.5,2-0.7,3c-0.9,3.7-1.9,7.3-2.9,10.8c-0.1,0.5-0.3,1-0.5,1.6c-0.9,2.9-1.7,5.8-2.6,8.6c-0.3,1-0.7,2-1,3
		c-0.8,2.4-1.6,4.7-2.5,6.9c-0.4,1-0.7,1.9-1.1,2.8c-1.2,2.8-2.4,5.5-3.7,8.1c-0.1,0.2-0.2,0.5-0.3,0.7c-1.4,2.8-2.9,5.4-4.5,8
		c-0.5,0.7-0.9,1.4-1.4,2.1c-1.2,1.8-2.5,3.5-3.8,5.2c-0.6,0.7-1.2,1.5-1.8,2.1c-1.5,1.7-3,3.2-4.5,4.7c-0.5,0.5-1,1-1.5,1.4
		c-2.1,1.8-4.4,3.5-6.8,5c-0.5,0.3-1.1,0.6-1.6,0.9c-1.9,1.1-4,2.2-6.1,3.1c-0.9,0.4-1.8,0.7-2.7,1c-2,0.7-4.1,1.3-6.3,1.9
		c-0.9,0.2-1.8,0.5-2.8,0.7c-3.1,0.6-6.4,1.1-9.8,1.3c0,0,0,0,0,0c-12,0.7-21.8,1.7-29.7,3.1c-1.3,0.2-2.4,0.5-3.6,0.7
		c-39.9,7.8-23.6,23.9,2.1,36.3c18.6,9,42.1,16.2,52.1,16.7c4.8,0.3,9.6,0.3,14.3,0.1c1,0,2,0,3-0.1c4.6-0.2,9.1-0.6,13.6-1.2
		c0.7-0.1,1.5-0.3,2.2-0.4c4.1-0.6,8.2-1.4,12.2-2.3c0.7-0.2,1.4-0.3,2.1-0.5c4.4-1,8.7-2.3,12.9-3.6c0.9-0.3,1.8-0.6,2.8-0.9
		c4.3-1.4,8.6-3,12.9-4.8c0,0,0,0,0,0c4.3-1.8,8.4-3.7,12.6-5.7c0.9-0.4,1.7-0.9,2.6-1.3c4-2,8-4.2,11.9-6.4c0.7-0.4,1.3-0.8,2-1.2
		c3.6-2.1,7.2-4.3,10.7-6.6c0.6-0.4,1.2-0.8,1.8-1.2c3.8-2.5,7.6-5.2,11.3-7.9c0.8-0.6,1.6-1.2,2.4-1.8c3.7-2.8,7.5-5.6,11.2-8.6
		c0,0,0,0,0.1,0c3.7-2.9,7.3-6,10.9-9c0.8-0.7,1.5-1.3,2.3-2c3.5-3,6.9-6.1,10.3-9.1c0.6-0.6,1.2-1.1,1.8-1.7
		c3.1-2.8,6.1-5.7,9.2-8.6c0.5-0.5,1.1-1.1,1.7-1.6c3.3-3.1,6.5-6.3,9.6-9.5c0.8-0.8,1.6-1.7,2.5-2.5c3-3,5.9-6,8.8-9
		c0.5-0.6,1-1.1,1.6-1.6c2.7-2.8,5.3-5.6,7.9-8.3c0.6-0.6,1.2-1.3,1.8-2c13.6-14.4,26.3-28.5,38.1-40.9
		C734,499,761.3,459.1,772.3,413C779.7,382,766.2,331.1,682.1,339.5z"/>
</g>
<g id="Metal_tip_top">
	<path fill="#BCBEC0" d="M864.7,306.2c-7.4,18.2-25.4,29.3-40.2,24.8L644.7,276c-14.8-4.5-20.7-23-13.3-41.1l0,0
		c7.5-18.2,25.5-29.3,40.2-24.8L851.5,265C866.3,269.5,872.2,287.9,864.7,306.2L864.7,306.2z"/>
</g>
<g id="Metal_tip_bott">
	<path fill="#939598" d="M816.4,358.6c-7.4,18.2-23.2,30-35.1,26.4l-145.5-44.4c-12-3.6-15.6-21.4-8.2-39.5l0,0
		c7.5-18.2,23.2-30,35.1-26.4L808.2,319C820.2,322.7,823.8,340.4,816.4,358.6L816.4,358.6z"/>
</g>
<g id="Paint_1_">
	<path id="Paint" fill="#DD6685" d="M622.9,553.6c-16.3-29.3-29.3,5.7-58.7-36.5c-30.2-39.4-55.6-3.2-59.5,15.3
		c-0.2,1-0.4,1.9-0.6,2.8c-0.3,1.3-0.6,2.6-0.9,3.9c-0.7,3-1.4,6-2.1,9c-0.2,1-0.5,2.1-0.7,3.1c-0.9,3.9-1.9,7.7-2.9,11.4
		c-0.1,0.6-0.3,1.1-0.5,1.7c-0.9,3.1-1.8,6.1-2.7,9c-0.3,1.1-0.7,2.1-1,3.2c-0.8,2.5-1.7,4.9-2.6,7.3c-0.4,1-0.7,2-1.1,3
		c-1.2,3-2.4,5.8-3.7,8.6c-0.1,0.2-0.2,0.5-0.3,0.8c-1.4,2.9-3,5.7-4.6,8.4c-0.5,0.7-1,1.5-1.4,2.2c-1.2,1.9-2.5,3.7-3.9,5.5
		c-0.6,0.8-1.2,1.5-1.8,2.2c-1.5,1.8-3,3.4-4.7,4.9c-0.5,0.5-1,1-1.5,1.5c-2.2,1.9-4.5,3.7-6.9,5.3c-0.5,0.3-1.1,0.6-1.6,0.9
		c-2,1.2-4.1,2.3-6.3,3.2c-0.9,0.4-1.8,0.8-2.8,1.1c-2.1,0.8-4.2,1.4-6.4,1.9c-0.9,0.3-1.9,0.5-2.9,0.7c-3.2,0.6-6.6,1.1-10.1,1.3
		c0,0,0,0,0,0c-12.4,0.7-22.5,1.7-30.6,3.1c-1.3,0.2-2.5,0.5-3.7,0.7c-41.1,8-24.2,25.1,2.3,38.3c19.2,9.6,43.4,17.3,53.8,17.9
		c5,0.3,9.9,0.3,14.7,0.2c1,0,2,0,3-0.1c4.7-0.2,9.4-0.6,14-1.2c0.8-0.1,1.5-0.3,2.3-0.4c4.2-0.6,8.4-1.4,12.6-2.3
		c0.7-0.2,1.5-0.3,2.2-0.5c4.5-1.1,8.9-2.3,13.3-3.7c1-0.3,1.9-0.6,2.8-0.9c4.5-1.5,8.9-3.1,13.2-5c0,0,0,0,0,0
		c4.4-1.8,8.7-3.9,13-6c0.9-0.5,1.8-0.9,2.7-1.4c4.1-2.1,8.2-4.4,12.2-6.7c0.7-0.4,1.4-0.8,2.1-1.2c3.7-2.2,7.4-4.5,11-7
		c0.6-0.4,1.3-0.8,1.9-1.2c3.9-2.6,7.8-5.4,11.6-8.2c0.9-0.6,1.7-1.3,2.5-1.9c3.8-2.9,7.7-5.9,11.5-9c0,0,0,0,0.1,0
		c3.8-3.1,7.5-6.3,11.2-9.5c0.8-0.7,1.6-1.4,2.4-2.1c3.6-3.2,7.1-6.4,10.6-9.6c0.6-0.6,1.2-1.2,1.8-1.7c3.2-3,6.3-6,9.4-9
		c0.6-0.6,1.1-1.1,1.7-1.7c3.3-3.3,6.6-6.6,9.9-10c0.8-0.9,1.7-1.7,2.5-2.6c3.1-3.2,6.1-6.3,9.1-9.5c0.5-0.6,1.1-1.2,1.6-1.7
		c2.7-2.9,5.4-5.9,8.1-8.8c0.6-0.7,1.3-1.4,1.9-2.1C682.1,556.4,643.4,590.6,622.9,553.6z"/>
</g>
</svg>
