<?xml version="1.0" encoding="utf-8"?>
<!-- Generator: Adobe Illustrator 18.1.1, SVG Export Plug-In . SVG Version: 6.00 Build 0)  -->
<!DOCTYPE svg PUBLIC "-//W3C//DTD SVG 1.1//EN" "http://www.w3.org/Graphics/SVG/1.1/DTD/svg11.dtd">
<svg version="1.1" xmlns="http://www.w3.org/2000/svg" xmlns:xlink="http://www.w3.org/1999/xlink" x="0px" y="0px"
	 viewBox="0 0 1920 1080" enable-background="new 0 0 1920 1080" xml:space="preserve">
<g id="Background">
	<path fill="#9CD19E" d="M1498.1,974c0,56.8-46,102.8-102.8,102.8H525.4c-56.8,0-102.8-46-102.8-102.8V104.1
		c0-56.8,46-102.8,102.8-102.8h869.8c56.8,0,102.8,46,102.8,102.8V974z"/>
</g>
<g id="Shadow">
	<path fill="#759D77" d="M1498.1,974c0,56.8-46,102.8-102.8,102.8h-417L769.6,884.9l385.8-692l340.1,314.4L1498.1,974z"/>
</g>
<g id="Body">
	<path fill="#58595B" d="M1173.4,800c4.4,97.4-27.5,97.4-61.4,97.4h-303c-33.9,0-62.4-13.9-61.4-97.4V397.1v-16.4l0.9-101.2
		c0-98,26.6-98,60.6-98h303c33.9,0,63.9,0,62.7,98l-1.2,101.2v16.4V800z"/>
</g>
<g id="Groove">
	<rect x="748.4" y="399" fill="#D1D3D4" width="426.2" height="17.9"/>
</g>
<g id="Screen">
	<path fill="#D1D3D4" d="M1133.8,297.4c0,23.8-16.9,43.1-37.6,43.1H824.8c-20.8,0-37.6-19.3-37.6-43.1l0,0
		c0-23.8,16.9-43.1,37.6-43.1h271.3C1116.9,254.3,1133.8,273.6,1133.8,297.4L1133.8,297.4z"/>
</g>
<g id="Screen_shadow">
	<path fill="#A7A9AC" d="M1133.8,297.4c0,23.8-16.9,43.1-37.6,43.1h-102l102-86.1C1116.9,254.3,1133.8,273.6,1133.8,297.4
		L1133.8,297.4z"/>
</g>
<g id="Buttons_top">
	<g>
		<path fill="#D1D3D4" d="M889.6,518.4c0,11-9,19.8-20.1,19.8H817c-11.1,0-20.1-8.9-20.1-19.8v-38c0-10.9,9-19.8,20.1-19.8h52.5
			c11.1,0,20.1,8.9,20.1,19.8V518.4z"/>
		<path fill="#D1D3D4" d="M1007.8,518.4c0,11-9,19.8-20.1,19.8h-52.5c-11.1,0-20.1-8.9-20.1-19.8v-38c0-10.9,9-19.8,20.1-19.8h52.5
			c11.1,0,20.1,8.9,20.1,19.8V518.4z"/>
		<path fill="#D1D3D4" d="M1127.3,517.2c0,11-9,19.8-20.1,19.8h-52.5c-11.1,0-20.1-8.9-20.1-19.8v-38c0-11,9-19.8,20.1-19.8h52.5
			c11.1,0,20.1,8.9,20.1,19.8V517.2z"/>
	</g>
	<path fill="#D1D3D4" d="M1126.2,618.3c0,11-9,19.8-20.1,19.8h-52.5c-11.1,0-20.1-8.9-20.1-19.8v-38c0-11,9-19.8,20.1-19.8h52.5
		c11.1,0,20.1,8.9,20.1,19.8V618.3z"/>
</g>
<g id="Buttons_mid1">
	<g>
		<path fill="#D1D3D4" d="M858.6,601.9c0,6.2-5.5,11.3-12.3,11.3H814c-6.8,0-12.3-5.1-12.3-11.3v-21.6c0-6.2,5.5-11.3,12.3-11.3
			h32.3c6.8,0,12.3,5.1,12.3,11.3V601.9z"/>
		<path fill="#D1D3D4" d="M931.3,601.9c0,6.2-5.5,11.3-12.3,11.3h-32.3c-6.8,0-12.3-5.1-12.3-11.3v-21.6c0-6.2,5.5-11.3,12.3-11.3
			H919c6.8,0,12.3,5.1,12.3,11.3V601.9z"/>
		<path fill="#D1D3D4" d="M1004.9,601.2c0,6.2-5.5,11.3-12.3,11.3h-32.3c-6.8,0-12.3-5.1-12.3-11.3v-21.6c0-6.2,5.5-11.3,12.3-11.3
			h32.3c6.8,0,12.3,5.1,12.3,11.3V601.2z"/>
	</g>
</g>
<g id="Buttons_mid2">
	<g>
		<path fill="#D1D3D4" d="M859,677.8c0,6.2-5.5,11.3-12.3,11.3h-32.3c-6.8,0-12.3-5.1-12.3-11.3v-21.6c0-6.2,5.5-11.3,12.3-11.3
			h32.3c6.8,0,12.3,5.1,12.3,11.3V677.8z"/>
		<path fill="#D1D3D4" d="M931.8,677.8c0,6.2-5.5,11.3-12.3,11.3h-32.3c-6.8,0-12.3-5.1-12.3-11.3v-21.6c0-6.2,5.5-11.3,12.3-11.3
			h32.3c6.8,0,12.3,5.1,12.3,11.3V677.8z"/>
		<path fill="#D1D3D4" d="M1005.3,677.1c0,6.2-5.5,11.3-12.3,11.3h-32.3c-6.8,0-12.3-5.1-12.3-11.3v-21.6c0-6.2,5.5-11.3,12.3-11.3
			h32.3c6.8,0,12.3,5.1,12.3,11.3V677.1z"/>
	</g>
</g>
<g id="Buttons_mid3">
	<g>
		<path fill="#D1D3D4" d="M858.4,753.8c0,6.2-5.5,11.3-12.3,11.3h-32.3c-6.8,0-12.3-5.1-12.3-11.3v-21.6c0-6.2,5.5-11.3,12.3-11.3
			h32.3c6.8,0,12.3,5.1,12.3,11.3V753.8z"/>
		<path fill="#D1D3D4" d="M931.1,753.8c0,6.2-5.5,11.3-12.3,11.3h-32.3c-6.8,0-12.3-5.1-12.3-11.3v-21.6c0-6.2,5.5-11.3,12.3-11.3
			h32.3c6.8,0,12.3,5.1,12.3,11.3V753.8z"/>
		<path fill="#D1D3D4" d="M1004.7,753.1c0,6.2-5.5,11.3-12.3,11.3H960c-6.8,0-12.3-5.1-12.3-11.3v-21.6c0-6.2,5.5-11.3,12.3-11.3
			h32.3c6.8,0,12.3,5.1,12.3,11.3V753.1z"/>
	</g>
</g>
<g id="Buttons_bott">
	<g>
		<path fill="#D1D3D4" d="M858.3,829.7c0,6.2-5.5,11.3-12.3,11.3h-32.3c-6.8,0-12.3-5.1-12.3-11.3v-21.6c0-6.2,5.5-11.3,12.3-11.3
			H846c6.8,0,12.3,5.1,12.3,11.3V829.7z"/>
		<path fill="#D1D3D4" d="M931,829.7c0,6.2-5.5,11.3-12.3,11.3h-32.3c-6.8,0-12.3-5.1-12.3-11.3v-21.6c0-6.2,5.5-11.3,12.3-11.3
			h32.3c6.8,0,12.3,5.1,12.3,11.3V829.7z"/>
		<path fill="#D1D3D4" d="M1004.6,829c0,6.2-5.5,11.3-12.3,11.3h-32.3c-6.8,0-12.3-5.1-12.3-11.3v-21.6c0-6.2,5.5-11.3,12.3-11.3
			h32.3c6.8,0,12.3,5.1,12.3,11.3V829z"/>
	</g>
</g>
<g id="Lg_button">
	<path fill="#89E6E9" d="M1124.9,796.7c0,25.6,4.2,46.3-20.1,46.3h-52.5c-20.4,1.3-20.1-20.7-20.1-46.3v-88.8
		c0-25.6-4.4-46.3,20.1-46.3h52.5c24.8,1.2,20.1,20.7,20.1,46.3V796.7z"/>
</g>
</svg>
