<?xml version="1.0" encoding="utf-8"?>
<!-- Generator: Adobe Illustrator 18.1.1, SVG Export Plug-In . SVG Version: 6.00 Build 0)  -->
<!DOCTYPE svg PUBLIC "-//W3C//DTD SVG 1.1//EN" "http://www.w3.org/Graphics/SVG/1.1/DTD/svg11.dtd">
<svg version="1.1" xmlns="http://www.w3.org/2000/svg" xmlns:xlink="http://www.w3.org/1999/xlink" x="0px" y="0px"
	 viewBox="0 0 1080 1080" enable-background="new 0 0 1080 1080" xml:space="preserve">
<g id="Background">
	<path fill="#9CD19E" d="M1078.1,974c0,56.8-46,102.8-102.8,102.8H105.4c-56.8,0-102.8-46-102.8-102.8V104.1
		c0-56.8,46-102.8,102.8-102.8h869.8c56.8,0,102.8,46,102.8,102.8V974z"/>
</g>
<g id="Shadow">
	<path fill="#759D77" d="M1078.1,974c0,56.8-46,102.8-102.8,102.8h-417L349.6,884.9l385.8-692l340.1,314.4L1078.1,974z"/>
</g>
<g id="Body">
	<path fill="#58595B" d="M753.4,800c4.4,97.4-27.5,97.4-61.4,97.4h-303c-33.9,0-62.4-13.9-61.4-97.4V397.1v-16.4l0.9-101.2
		c0-98,26.6-98,60.6-98h303c33.9,0,63.9,0,62.7,98l-1.2,101.2v16.4V800z"/>
</g>
<g id="Groove">
	<rect x="328.4" y="399" fill="#D1D3D4" width="426.2" height="17.9"/>
</g>
<g id="Screen">
	<path fill="#D1D3D4" d="M713.8,297.4c0,23.8-16.9,43.1-37.6,43.1H404.8c-20.8,0-37.6-19.3-37.6-43.1l0,0
		c0-23.8,16.9-43.1,37.6-43.1h271.3C696.9,254.3,713.8,273.6,713.8,297.4L713.8,297.4z"/>
</g>
<g id="Screen_shadow">
	<path fill="#A7A9AC" d="M713.8,297.4c0,23.8-16.9,43.1-37.6,43.1h-102l102-86.1C696.9,254.3,713.8,273.6,713.8,297.4L713.8,297.4z"
		/>
</g>
<g id="Buttons_top">
	<g>
		<path fill="#D1D3D4" d="M469.6,518.4c0,11-9,19.8-20.1,19.8H397c-11.1,0-20.1-8.9-20.1-19.8v-38c0-10.9,9-19.8,20.1-19.8h52.5
			c11.1,0,20.1,8.9,20.1,19.8V518.4z"/>
		<path fill="#D1D3D4" d="M587.8,518.4c0,11-9,19.8-20.1,19.8h-52.5c-11.1,0-20.1-8.9-20.1-19.8v-38c0-10.9,9-19.8,20.1-19.8h52.5
			c11.1,0,20.1,8.9,20.1,19.8V518.4z"/>
		<path fill="#D1D3D4" d="M707.3,517.2c0,11-9,19.8-20.1,19.8h-52.5c-11.1,0-20.1-8.9-20.1-19.8v-38c0-11,9-19.8,20.1-19.8h52.5
			c11.1,0,20.1,8.9,20.1,19.8V517.2z"/>
	</g>
	<path fill="#D1D3D4" d="M706.2,618.3c0,11-9,19.8-20.1,19.8h-52.5c-11.1,0-20.1-8.9-20.1-19.8v-38c0-11,9-19.8,20.1-19.8h52.5
		c11.1,0,20.1,8.9,20.1,19.8V618.3z"/>
</g>
<g id="Buttons_mid1">
	<g>
		<path fill="#D1D3D4" d="M438.6,601.9c0,6.2-5.5,11.3-12.3,11.3H394c-6.8,0-12.3-5.1-12.3-11.3v-21.6c0-6.2,5.5-11.3,12.3-11.3
			h32.3c6.8,0,12.3,5.1,12.3,11.3V601.9z"/>
		<path fill="#D1D3D4" d="M511.3,601.9c0,6.2-5.5,11.3-12.3,11.3h-32.3c-6.8,0-12.3-5.1-12.3-11.3v-21.6c0-6.2,5.5-11.3,12.3-11.3
			H499c6.8,0,12.3,5.1,12.3,11.3V601.9z"/>
		<path fill="#D1D3D4" d="M584.9,601.2c0,6.2-5.5,11.3-12.3,11.3h-32.3c-6.8,0-12.3-5.1-12.3-11.3v-21.6c0-6.2,5.5-11.3,12.3-11.3
			h32.3c6.8,0,12.3,5.1,12.3,11.3V601.2z"/>
	</g>
</g>
<g id="Buttons_mid2">
	<g>
		<path fill="#D1D3D4" d="M439,677.8c0,6.2-5.5,11.3-12.3,11.3h-32.3c-6.8,0-12.3-5.1-12.3-11.3v-21.6c0-6.2,5.5-11.3,12.3-11.3
			h32.3c6.8,0,12.3,5.1,12.3,11.3V677.8z"/>
		<path fill="#D1D3D4" d="M511.8,677.8c0,6.2-5.5,11.3-12.3,11.3h-32.3c-6.8,0-12.3-5.1-12.3-11.3v-21.6c0-6.2,5.5-11.3,12.3-11.3
			h32.3c6.8,0,12.3,5.1,12.3,11.3V677.8z"/>
		<path fill="#D1D3D4" d="M585.3,677.1c0,6.2-5.5,11.3-12.3,11.3h-32.3c-6.8,0-12.3-5.1-12.3-11.3v-21.6c0-6.2,5.5-11.3,12.3-11.3
			h32.3c6.8,0,12.3,5.1,12.3,11.3V677.1z"/>
	</g>
</g>
<g id="Buttons_mid3">
	<g>
		<path fill="#D1D3D4" d="M438.4,753.8c0,6.2-5.5,11.3-12.3,11.3h-32.3c-6.8,0-12.3-5.1-12.3-11.3v-21.6c0-6.2,5.5-11.3,12.3-11.3
			h32.3c6.8,0,12.3,5.1,12.3,11.3V753.8z"/>
		<path fill="#D1D3D4" d="M511.1,753.8c0,6.2-5.5,11.3-12.3,11.3h-32.3c-6.8,0-12.3-5.1-12.3-11.3v-21.6c0-6.2,5.5-11.3,12.3-11.3
			h32.3c6.8,0,12.3,5.1,12.3,11.3V753.8z"/>
		<path fill="#D1D3D4" d="M584.7,753.1c0,6.2-5.5,11.3-12.3,11.3H540c-6.8,0-12.3-5.1-12.3-11.3v-21.6c0-6.2,5.5-11.3,12.3-11.3
			h32.3c6.8,0,12.3,5.1,12.3,11.3V753.1z"/>
	</g>
</g>
<g id="Buttons_bott">
	<g>
		<path fill="#D1D3D4" d="M438.3,829.7c0,6.2-5.5,11.3-12.3,11.3h-32.3c-6.8,0-12.3-5.1-12.3-11.3v-21.6c0-6.2,5.5-11.3,12.3-11.3
			H426c6.8,0,12.3,5.1,12.3,11.3V829.7z"/>
		<path fill="#D1D3D4" d="M511,829.7c0,6.2-5.5,11.3-12.3,11.3h-32.3c-6.8,0-12.3-5.1-12.3-11.3v-21.6c0-6.2,5.5-11.3,12.3-11.3
			h32.3c6.8,0,12.3,5.1,12.3,11.3V829.7z"/>
		<path fill="#D1D3D4" d="M584.6,829c0,6.2-5.5,11.3-12.3,11.3h-32.3c-6.8,0-12.3-5.1-12.3-11.3v-21.6c0-6.2,5.5-11.3,12.3-11.3
			h32.3c6.8,0,12.3,5.1,12.3,11.3V829z"/>
	</g>
</g>
<g id="Lg_button">
	<path fill="#89E6E9" d="M704.9,796.7c0,25.6,4.2,46.3-20.1,46.3h-52.5c-20.4,1.3-20.1-20.7-20.1-46.3v-88.8
		c0-25.6-4.4-46.3,20.1-46.3h52.5c24.8,1.2,20.1,20.7,20.1,46.3V796.7z"/>
</g>
</svg>
