<?xml version="1.0" encoding="utf-8"?>
<!-- Generator: Adobe Illustrator 18.1.1, SVG Export Plug-In . SVG Version: 6.00 Build 0)  -->
<!DOCTYPE svg PUBLIC "-//W3C//DTD SVG 1.1//EN" "http://www.w3.org/Graphics/SVG/1.1/DTD/svg11.dtd">
<svg version="1.1" xmlns="http://www.w3.org/2000/svg" xmlns:xlink="http://www.w3.org/1999/xlink" x="0px" y="0px"
	 viewBox="0 0 1080 1080" enable-background="new 0 0 1080 1080" xml:space="preserve">
<g id="Background">
	<path fill="#BBE9E1" d="M980.8,1075.6H99.2c-52.6,0-95.6-43-95.6-95.6V98.5c0-52.6,43-95.6,95.6-95.6h881.5
		c52.6,0,95.6,43,95.6,95.6V980C1076.3,1032.6,1033.3,1075.6,980.8,1075.6z"/>
</g>
<g id="Shadow">
	<path fill="#89C0AE" d="M1078.1,973.1c0,56.7-45.9,102.6-102.6,102.6h-252l-282-272.4L975.5,3c56.6,0,102.6,45.9,102.6,102.6V973.1
		z"/>
</g>
<g id="Stroke">
	<path fill="#666666" d="M16.6,700.5c4-19.3,9.5-57.2,28.1-70c14.2-9.8,74.1,129.2,82,143.4c76.7,139.2,276.5,77.5,372.2-12.2
		c41.8-39.2-21.3-98.4-63.2-59.2c-48.1,45.1-123.3,81.2-190,62.9c-32.3-8.8-45.7-43.1-57.9-69.4c-15.1-32.7-28-66.3-48.5-96.4
		C108.7,554.7,51.1,531.3,3.5,556v222.2c0.3-1.2,0.6-2.3,0.8-3.6C8.3,749.8,11.5,725.1,16.6,700.5z"/>
</g>
<g id="Wood">
	<polygon fill="#D1B08A" points="790,517.1 539.8,724.3 421.4,669.7 419.3,369.3 	"/>
</g>
<g id="Lead">
	<path fill="#4D4D4D" d="M539.8,724.3l-33,30.7c-77.3,74.2-98.6,69.8-87.3-63l1.9-22.4L539.8,724.3z"/>
</g>
<g id="Pencil">
	<g>
		<path fill="#FFFFFF" d="M790,517.1L1005,7.9C995.1,4.7,984.6,3,973.6,3H578.4l-159,366.4L790,517.1z"/>
		<path fill="#FEEE87" d="M725.9,530.5l64.1-10.7l223.9-509.1c-10-3.3-20.6-5.1-31.7-5.1h-96.9L678.8,472.8L725.9,530.5z"/>
		<polygon fill="#FEEE87" points="453.1,424.5 521.9,410.2 690.2,3 571,3 419.3,369.3 		"/>
		<polygon fill="#FEEE87" points="586.3,474.4 663.3,466.6 868.2,3 707.3,3 536.6,416.1 		"/>
	</g>
</g>
</svg>
