<?xml version="1.0" encoding="utf-8"?>
<!-- Generator: Adobe Illustrator 18.1.1, SVG Export Plug-In . SVG Version: 6.00 Build 0)  -->
<!DOCTYPE svg PUBLIC "-//W3C//DTD SVG 1.1//EN" "http://www.w3.org/Graphics/SVG/1.1/DTD/svg11.dtd">
<svg version="1.1" xmlns="http://www.w3.org/2000/svg" xmlns:xlink="http://www.w3.org/1999/xlink" x="0px" y="0px"
	 viewBox="0 0 1080 1080" enable-background="new 0 0 1080 1080" xml:space="preserve">
<g id="Background">
	<path fill="#D2608B" d="M976.3,1077.4H104.2c-55.9,0-101.6-45.7-101.6-101.6V103.8C2.7,47.9,48.4,2.2,104.2,2.2h872.1
		c55.9,0,101.6,45.7,101.6,101.6v872.1C1077.8,1031.7,1032.1,1077.4,976.3,1077.4z"/>
</g>
<g id="Shadow">
	<path fill="#9E4868" d="M1076.4,974.9c0,56.8-46.1,102.9-102.9,102.9h-251L439.7,804.5l-20-134.8L656.1,232L973.6,1.9
		c56.8,0,102.9,46.1,102.9,102.9V974.9z"/>
</g>
<g id="Leg">
	<g>
		<path fill="#FCD1BB" d="M515,217C515,217,515,217,515,217l0.9-1.1c-17,16.1-31.7,31.2-45.2,51.3c-88,132-62.4,234.8-83.7,369
			c0,0,128.9-136.3,158.8-159.9c16.1-12.7,31-24.7,45.1-36.1c-39.5-83.1-95.1-112.4-94.5-204.8L515,217z"/>
		<path fill="#FCD1BB" d="M978,3H689.2c-20.1,32-37.5,59.1-50.6,77.5c-20.8,29.1-39.5,51.7-56.6,70.4c-7.8,8.6-15.3,16.4-22.5,23.5
			c0-0.6,0-1.3,0-1.9l-63.1,62.8c-0.6,92.4,55.1,121.9,94.5,205l68.1-56.2c0,0,0,0,0-0.1c51-41.9,80.1-66.7,102.1-64.1
			c-9.6-12.4-13.1-23-16.3-34.1l0,0c0,0,0-0.1,0-0.1c0,0,0,0.1,0.1,0.1l13.9-62.3c8.6-12,20.3-24.4,35.2-37.7
			C834.7,149.4,920.3,74.7,999.5,5.2C992.5,3.7,985.4,3,978,3z M735.6,268.6c-0.1-0.1-0.2-0.2-0.3-0.3
			C735.4,268.4,735.5,268.5,735.6,268.6z M740.6,275c-0.1-0.1-0.1-0.2-0.2-0.3C740.5,274.8,740.6,274.9,740.6,275z M739.5,273.4
			c-0.1-0.1-0.1-0.2-0.2-0.3C739.4,273.2,739.5,273.3,739.5,273.4z M738.3,271.7c-0.1-0.1-0.2-0.2-0.2-0.3
			C738.2,271.5,738.2,271.6,738.3,271.7z M737,270.1c-0.1-0.1-0.2-0.2-0.3-0.3C736.8,269.9,736.9,270,737,270.1z M734.1,267.1
			c-0.1-0.1-0.2-0.2-0.3-0.3C733.9,266.8,734,266.9,734.1,267.1z M732.5,265.6c-0.1-0.1-0.2-0.2-0.4-0.3
			C732.2,265.3,732.3,265.5,732.5,265.6z M730.8,264.1c-0.1-0.1-0.3-0.2-0.4-0.3C730.5,263.9,730.6,264,730.8,264.1z M728.9,262.7
			c-0.1-0.1-0.3-0.2-0.4-0.3C728.7,262.5,728.8,262.6,728.9,262.7z M727,261.3c-0.1-0.1-0.3-0.2-0.4-0.3
			C726.7,261.1,726.9,261.2,727,261.3z M725,259.9c-0.1-0.1-0.3-0.2-0.4-0.3C724.7,259.7,724.9,259.8,725,259.9z M722.9,258.6
			c-0.1-0.1-0.3-0.2-0.4-0.3C722.6,258.4,722.8,258.5,722.9,258.6z M720.8,257.3c-0.1-0.1-0.3-0.2-0.4-0.3
			C720.5,257.1,720.6,257.2,720.8,257.3z M718.5,256c-0.1-0.1-0.3-0.2-0.4-0.2C718.2,255.8,718.4,255.9,718.5,256z M716.2,254.7
			c-0.1-0.1-0.3-0.1-0.4-0.2C715.9,254.6,716,254.7,716.2,254.7z M713.8,253.5c-0.1-0.1-0.3-0.1-0.4-0.2
			C713.5,253.4,713.6,253.5,713.8,253.5z M711.3,252.4c-0.1-0.1-0.2-0.1-0.3-0.2C711,252.3,711.2,252.3,711.3,252.4z M708.7,251.2
			c-0.1,0-0.2-0.1-0.3-0.1C708.5,251.1,708.6,251.2,708.7,251.2z M706.1,250.1c-0.1,0-0.1-0.1-0.2-0.1
			C706,250,706,250.1,706.1,250.1z M703.4,249C703.4,249,703.3,249,703.4,249C703.3,249,703.4,249,703.4,249z M667.4,238.1
			c-0.1,0-0.1,0-0.2,0C667.2,238,667.3,238,667.4,238.1z M664.2,237.3c-0.1,0-0.2-0.1-0.3-0.1C664,237.3,664.1,237.3,664.2,237.3z
			 M661,236.6c-0.2,0-0.4-0.1-0.5-0.1C660.7,236.5,660.9,236.6,661,236.6z M657.8,235.9c-0.2,0-0.4-0.1-0.7-0.1
			C657.3,235.8,657.6,235.9,657.8,235.9z M654.5,235.2c-0.3-0.1-0.5-0.1-0.8-0.2C654,235.1,654.2,235.2,654.5,235.2z M651.1,234.5
			c-0.3-0.1-0.6-0.1-0.9-0.2C650.6,234.4,650.8,234.5,651.1,234.5z M647.8,233.9c-0.3-0.1-0.6-0.1-1-0.2
			C647.1,233.8,647.4,233.8,647.8,233.9z M644.4,233.3c-0.3-0.1-0.7-0.1-1-0.2C643.7,233.1,644,233.2,644.4,233.3z M640.9,232.6
			c-0.4-0.1-0.7-0.1-1.1-0.2C640.2,232.5,640.6,232.6,640.9,232.6z M637.5,232c-0.4-0.1-0.7-0.1-1.1-0.2
			C636.7,231.9,637.1,232,637.5,232z M582.3,224.4c-0.5-0.1-0.9-0.1-1.4-0.2C581.4,224.3,581.8,224.3,582.3,224.4z M634,231.4
			c-0.4-0.1-0.8-0.1-1.2-0.2C633.2,231.3,633.6,231.4,634,231.4z M630.5,230.9c-0.4-0.1-0.8-0.1-1.2-0.2
			C629.7,230.7,630.1,230.8,630.5,230.9z M627,230.3c-0.4-0.1-0.8-0.1-1.2-0.2C626.2,230.2,626.6,230.2,627,230.3z M623.5,229.8
			c-0.4-0.1-0.8-0.1-1.2-0.2C622.7,229.6,623.1,229.7,623.5,229.8z M620.1,229.2c-0.4-0.1-0.9-0.1-1.3-0.2
			C619.2,229.1,619.6,229.2,620.1,229.2z M616.6,228.7c-0.4-0.1-0.9-0.1-1.3-0.2C615.7,228.6,616.1,228.7,616.6,228.7z M613.1,228.2
			c-0.5-0.1-0.9-0.1-1.4-0.2C612.2,228.1,612.6,228.2,613.1,228.2z M609.6,227.8c-0.5-0.1-0.9-0.1-1.4-0.2
			C608.7,227.6,609.1,227.7,609.6,227.8z M606.1,227.3c-0.4-0.1-0.9-0.1-1.3-0.2C605.2,227.2,605.7,227.2,606.1,227.3z M602.7,226.8
			c-0.5-0.1-0.9-0.1-1.4-0.2C601.7,226.7,602.2,226.8,602.7,226.8z M599.2,226.4c-0.5-0.1-0.9-0.1-1.4-0.2
			C598.3,226.3,598.7,226.3,599.2,226.4z M595.8,226c-0.5-0.1-0.9-0.1-1.4-0.2C594.9,225.9,595.3,225.9,595.8,226z M592.4,225.6
			c-0.5-0.1-0.9-0.1-1.4-0.2C591.4,225.4,591.9,225.5,592.4,225.6z M589,225.2c-0.5-0.1-0.9-0.1-1.4-0.2
			C588,225,588.5,225.1,589,225.2z M585.6,224.8c-0.5-0.1-0.9-0.1-1.3-0.2C584.7,224.7,585.2,224.7,585.6,224.8z M559.5,176.1
			c0-0.2,0-0.4,0-0.5C559.5,175.7,559.5,175.9,559.5,176.1z M579,224c-0.5-0.1-1-0.1-1.5-0.2C578,223.9,578.5,224,579,224z
			 M575.7,223.6c-0.4,0-0.8-0.1-1.2-0.1C574.9,223.6,575.3,223.6,575.7,223.6z M559.7,179.3c0-0.1,0-0.2,0-0.3
			C559.6,179.1,559.6,179.2,559.7,179.3z M572.1,229.9c0,0.1,0.1,0.1,0.1,0.2C572.1,230,572.1,230,572.1,229.9z M570.7,226.5
			C570.7,226.6,570.7,226.6,570.7,226.5C570.7,226.6,570.7,226.6,570.7,226.5z M741.5,276.5c0,0.1,0.1,0.2,0.1,0.2
			C741.5,276.6,741.5,276.5,741.5,276.5z M742.4,278.2c0,0.1,0.1,0.1,0.1,0.2C742.4,278.3,742.4,278.3,742.4,278.2z M743.1,280
			c0,0,0,0.1,0,0.1C743.2,280.1,743.1,280,743.1,280z"/>
	</g>
</g>
<g id="Shoe">
	<path fill="#FEF1F2" d="M588,439.2c-14,11.4-29,23.5-45.1,36.1C513,499,406,610.7,387.9,630.5c-12.5,67.4-49.1,180.1-21.8,205
		c42.5,17.5,57,28.2,82.7,14.2c20.7-16.3,84.8-170,98.3-224.1c29.5-74.6,10-107.4,146.4-118.7c38.9-3.2,111.5-53.5,109.2-90
		c-3.9-61.2-41.7-97-41.7-97c-22-2.6-54,21.2-105,63.2"/>
</g>
<g id="Sole">
	<path fill="#CFB8B9" d="M739,485.4c0,0-77.1,13.7-111.8,23.6c-38.4,10.9-38.3,15.7-48,24c-17.4,14-70.1,122.7-103.8,206.5
		c-17.2,42.6-10.9,79,1.7,65.6c3.4-3.6,20.5-44.4,21.5-46.6c26.4-59.2,27.8-69.4,41.7-109.6c3.5-10.2,7.6-21.3,11.7-34.2
		c2-6.4,4.3-13,6.3-20.3c6.1-22.3,14.4-44,24.5-54.5c2.1-2.2,15.3-18.2,57.2-25.9c10.5-1.9,53.1-6.8,53.2-6.8
		c13.5-1.4,18.8-4.4,25.8-6.8c6.3-2.5,12.7-5.7,19.2-9.2C740.8,488.8,741.2,486.8,739,485.4z"/>
</g>
<g id="Ribbon_bott">
	<path fill="#FEF1F2" d="M656.1,383.1c-29.2-66.5-97.1-138.4-96.6-210.6l-66,66c-0.6,92.4,55.1,117.7,94.5,200.8"/>
</g>
<g id="Ribbon_ankle_1_">
	<path id="Ribbon_ankle" fill="#FEF1F2" d="M582,150.8L582,150.8c-7.9,8.6-18.3,17.4-25.5,24.5c0.2,16.2,3.9,30.4,9.8,46.6
		c38,4.1,85.2,9.9,121.2,21.5c18.7,6,33.7,14.2,44,23.1c8,6.9,10,10.2,13.2,19.1l14-62.2C743.2,133.4,659.8,164.3,582,150.8z"/>
</g>
<g id="Background2">
</g>
</svg>
