<?xml version="1.0" encoding="utf-8"?>
<!-- Generator: Adobe Illustrator 18.1.1, SVG Export Plug-In . SVG Version: 6.00 Build 0)  -->
<!DOCTYPE svg PUBLIC "-//W3C//DTD SVG 1.1//EN" "http://www.w3.org/Graphics/SVG/1.1/DTD/svg11.dtd">
<svg version="1.1" xmlns="http://www.w3.org/2000/svg" xmlns:xlink="http://www.w3.org/1999/xlink" x="0px" y="0px"
	 viewBox="0 0 1920 1080" enable-background="new 0 0 1920 1080" xml:space="preserve">
<g id="Background">
	<path fill="#D2608B" d="M1396.3,1077.4H524.2c-55.9,0-101.6-45.7-101.6-101.6V103.8c0-55.9,45.7-101.6,101.6-101.6h872.1
		c55.9,0,101.6,45.7,101.6,101.6v872.1C1497.8,1031.7,1452.1,1077.4,1396.3,1077.4z"/>
</g>
<g id="Shadow">
	<path fill="#9E4868" d="M1496.4,974.9c0,56.8-46.1,102.9-102.9,102.9h-251L859.7,804.5l-20-134.8L1076.1,232L1393.6,1.9
		c56.8,0,102.9,46.1,102.9,102.9V974.9z"/>
</g>
<g id="Leg">
	<g>
		<path fill="#FCD1BB" d="M935,217C935,217,935,217,935,217l0.9-1.1c-17,16.1-31.7,31.2-45.2,51.3c-88,132-62.4,234.8-83.7,369
			c0,0,128.9-136.3,158.8-159.9c16.1-12.7,31-24.7,45.1-36.1c-39.5-83.1-95.1-112.4-94.5-204.8L935,217z"/>
		<path fill="#FCD1BB" d="M1398,3h-288.8c-20.1,32-37.5,59.1-50.6,77.5c-20.8,29.1-39.5,51.7-56.6,70.4
			c-7.8,8.6-15.3,16.4-22.5,23.5c0-0.6,0-1.3,0-1.9l-63.1,62.8c-0.6,92.4,55.1,121.9,94.5,205l68.1-56.2c0,0,0,0,0-0.1
			c51-41.9,80.1-66.7,102.1-64.1c-9.6-12.4-13.1-23-16.3-34.1l0,0c0,0,0-0.1,0-0.1c0,0,0,0.1,0.1,0.1l13.9-62.3
			c8.6-12,20.3-24.4,35.2-37.7c40.8-36.4,126.4-111.1,205.6-180.5C1412.5,3.7,1405.4,3,1398,3z M1155.6,268.6
			c-0.1-0.1-0.2-0.2-0.3-0.3C1155.4,268.4,1155.5,268.5,1155.6,268.6z M1160.6,275c-0.1-0.1-0.1-0.2-0.2-0.3
			C1160.5,274.8,1160.6,274.9,1160.6,275z M1159.5,273.4c-0.1-0.1-0.1-0.2-0.2-0.3C1159.4,273.2,1159.5,273.3,1159.5,273.4z
			 M1158.3,271.7c-0.1-0.1-0.2-0.2-0.2-0.3C1158.2,271.5,1158.2,271.6,1158.3,271.7z M1157,270.1c-0.1-0.1-0.2-0.2-0.3-0.3
			C1156.8,269.9,1156.9,270,1157,270.1z M1154.1,267.1c-0.1-0.1-0.2-0.2-0.3-0.3C1153.9,266.8,1154,266.9,1154.1,267.1z
			 M1152.5,265.6c-0.1-0.1-0.2-0.2-0.4-0.3C1152.2,265.3,1152.3,265.5,1152.5,265.6z M1150.8,264.1c-0.1-0.1-0.3-0.2-0.4-0.3
			C1150.5,263.9,1150.6,264,1150.8,264.1z M1148.9,262.7c-0.1-0.1-0.3-0.2-0.4-0.3C1148.7,262.5,1148.8,262.6,1148.9,262.7z
			 M1147,261.3c-0.1-0.1-0.3-0.2-0.4-0.3C1146.7,261.1,1146.9,261.2,1147,261.3z M1145,259.9c-0.1-0.1-0.3-0.2-0.4-0.3
			C1144.7,259.7,1144.9,259.8,1145,259.9z M1142.9,258.6c-0.1-0.1-0.3-0.2-0.4-0.3C1142.6,258.4,1142.8,258.5,1142.9,258.6z
			 M1140.8,257.3c-0.1-0.1-0.3-0.2-0.4-0.3C1140.5,257.1,1140.6,257.2,1140.8,257.3z M1138.5,256c-0.1-0.1-0.3-0.2-0.4-0.2
			C1138.2,255.8,1138.4,255.9,1138.5,256z M1136.2,254.7c-0.1-0.1-0.3-0.1-0.4-0.2C1135.9,254.6,1136,254.7,1136.2,254.7z
			 M1133.8,253.5c-0.1-0.1-0.3-0.1-0.4-0.2C1133.5,253.4,1133.6,253.5,1133.8,253.5z M1131.3,252.4c-0.1-0.1-0.2-0.1-0.3-0.2
			C1131,252.3,1131.2,252.3,1131.3,252.4z M1128.7,251.2c-0.1,0-0.2-0.1-0.3-0.1C1128.5,251.1,1128.6,251.2,1128.7,251.2z
			 M1126.1,250.1c-0.1,0-0.1-0.1-0.2-0.1C1126,250,1126,250.1,1126.1,250.1z M1123.4,249C1123.4,249,1123.3,249,1123.4,249
			C1123.3,249,1123.4,249,1123.4,249z M1087.4,238.1c-0.1,0-0.1,0-0.2,0C1087.2,238,1087.3,238,1087.4,238.1z M1084.2,237.3
			c-0.1,0-0.2-0.1-0.3-0.1C1084,237.3,1084.1,237.3,1084.2,237.3z M1081,236.6c-0.2,0-0.4-0.1-0.5-0.1
			C1080.7,236.5,1080.9,236.6,1081,236.6z M1077.8,235.9c-0.2,0-0.4-0.1-0.7-0.1C1077.3,235.8,1077.6,235.9,1077.8,235.9z
			 M1074.5,235.2c-0.3-0.1-0.5-0.1-0.8-0.2C1074,235.1,1074.2,235.2,1074.5,235.2z M1071.1,234.5c-0.3-0.1-0.6-0.1-0.9-0.2
			C1070.6,234.4,1070.8,234.5,1071.1,234.5z M1067.8,233.9c-0.3-0.1-0.6-0.1-1-0.2C1067.1,233.8,1067.4,233.8,1067.8,233.9z
			 M1064.4,233.3c-0.3-0.1-0.7-0.1-1-0.2C1063.7,233.1,1064,233.2,1064.4,233.3z M1060.9,232.6c-0.4-0.1-0.7-0.1-1.1-0.2
			C1060.2,232.5,1060.6,232.6,1060.9,232.6z M1057.5,232c-0.4-0.1-0.7-0.1-1.1-0.2C1056.7,231.9,1057.1,232,1057.5,232z
			 M1002.3,224.4c-0.5-0.1-0.9-0.1-1.4-0.2C1001.4,224.3,1001.8,224.3,1002.3,224.4z M1054,231.4c-0.4-0.1-0.8-0.1-1.2-0.2
			C1053.2,231.3,1053.6,231.4,1054,231.4z M1050.5,230.9c-0.4-0.1-0.8-0.1-1.2-0.2C1049.7,230.7,1050.1,230.8,1050.5,230.9z
			 M1047,230.3c-0.4-0.1-0.8-0.1-1.2-0.2C1046.2,230.2,1046.6,230.2,1047,230.3z M1043.5,229.8c-0.4-0.1-0.8-0.1-1.2-0.2
			C1042.7,229.6,1043.1,229.7,1043.5,229.8z M1040.1,229.2c-0.4-0.1-0.9-0.1-1.3-0.2C1039.2,229.1,1039.6,229.2,1040.1,229.2z
			 M1036.6,228.7c-0.4-0.1-0.9-0.1-1.3-0.2C1035.7,228.6,1036.1,228.7,1036.6,228.7z M1033.1,228.2c-0.5-0.1-0.9-0.1-1.4-0.2
			C1032.2,228.1,1032.6,228.2,1033.1,228.2z M1029.6,227.8c-0.5-0.1-0.9-0.1-1.4-0.2C1028.7,227.6,1029.1,227.7,1029.6,227.8z
			 M1026.1,227.3c-0.4-0.1-0.9-0.1-1.3-0.2C1025.2,227.2,1025.7,227.2,1026.1,227.3z M1022.7,226.8c-0.5-0.1-0.9-0.1-1.4-0.2
			C1021.7,226.7,1022.2,226.8,1022.7,226.8z M1019.2,226.4c-0.5-0.1-0.9-0.1-1.4-0.2C1018.3,226.3,1018.7,226.3,1019.2,226.4z
			 M1015.8,226c-0.5-0.1-0.9-0.1-1.4-0.2C1014.9,225.9,1015.3,225.9,1015.8,226z M1012.4,225.6c-0.5-0.1-0.9-0.1-1.4-0.2
			C1011.4,225.4,1011.9,225.5,1012.4,225.6z M1009,225.2c-0.5-0.1-0.9-0.1-1.4-0.2C1008,225,1008.5,225.1,1009,225.2z M1005.6,224.8
			c-0.5-0.1-0.9-0.1-1.3-0.2C1004.7,224.7,1005.2,224.7,1005.6,224.8z M979.5,176.1c0-0.2,0-0.4,0-0.5
			C979.5,175.7,979.5,175.9,979.5,176.1z M999,224c-0.5-0.1-1-0.1-1.5-0.2C998,223.9,998.5,224,999,224z M995.7,223.6
			c-0.4,0-0.8-0.1-1.2-0.1C994.9,223.6,995.3,223.6,995.7,223.6z M979.7,179.3c0-0.1,0-0.2,0-0.3
			C979.6,179.1,979.6,179.2,979.7,179.3z M992.1,229.9c0,0.1,0.1,0.1,0.1,0.2C992.1,230,992.1,230,992.1,229.9z M990.7,226.5
			C990.7,226.6,990.7,226.6,990.7,226.5C990.7,226.6,990.7,226.6,990.7,226.5z M1161.5,276.5c0,0.1,0.1,0.2,0.1,0.2
			C1161.5,276.6,1161.5,276.5,1161.5,276.5z M1162.4,278.2c0,0.1,0.1,0.1,0.1,0.2C1162.4,278.3,1162.4,278.3,1162.4,278.2z
			 M1163.1,280c0,0,0,0.1,0,0.1C1163.2,280.1,1163.1,280,1163.1,280z"/>
	</g>
</g>
<g id="Shoe">
	<path fill="#FEF1F2" d="M1008,439.2c-14,11.4-29,23.5-45.1,36.1C933,499,826,610.7,807.9,630.5c-12.5,67.4-49.1,180.1-21.8,205
		c42.5,17.5,57,28.2,82.7,14.2c20.7-16.3,84.8-170,98.3-224.1c29.5-74.6,10-107.4,146.4-118.7c38.9-3.2,111.5-53.5,109.2-90
		c-3.9-61.2-41.7-97-41.7-97c-22-2.6-54,21.2-105,63.2"/>
</g>
<g id="Sole">
	<path fill="#CFB8B9" d="M1159,485.4c0,0-77.1,13.7-111.8,23.6c-38.4,10.9-38.3,15.7-48,24c-17.4,14-70.1,122.7-103.8,206.5
		c-17.2,42.6-10.9,79,1.7,65.6c3.4-3.6,20.5-44.4,21.5-46.6c26.4-59.2,27.8-69.4,41.7-109.6c3.5-10.2,7.6-21.3,11.7-34.2
		c2-6.4,4.3-13,6.3-20.3c6.1-22.3,14.4-44,24.5-54.5c2.1-2.2,15.3-18.2,57.2-25.9c10.5-1.9,53.1-6.8,53.2-6.8
		c13.5-1.4,18.8-4.4,25.8-6.8c6.3-2.5,12.7-5.7,19.2-9.2C1160.8,488.8,1161.2,486.8,1159,485.4z"/>
</g>
<g id="Ribbon_bott">
	<path fill="#FEF1F2" d="M1076.1,383.1c-29.2-66.5-97.1-138.4-96.6-210.6l-66,66c-0.6,92.4,55.1,117.7,94.5,200.8"/>
</g>
<g id="Ribbon_ankle_1_">
	<path id="Ribbon_ankle" fill="#FEF1F2" d="M1002,150.8L1002,150.8c-7.9,8.6-18.3,17.4-25.5,24.5c0.2,16.2,3.9,30.4,9.8,46.6
		c38,4.1,85.2,9.9,121.2,21.5c18.7,6,33.7,14.2,44,23.1c8,6.9,10,10.2,13.2,19.1l14-62.2C1163.2,133.4,1079.8,164.3,1002,150.8z"/>
</g>
<g id="Background2">
</g>
</svg>
